<?xml version="1.0" encoding="UTF-8"?><svg id="a" xmlns="http://www.w3.org/2000/svg" xmlns:xlink="http://www.w3.org/1999/xlink" viewBox="0 0 1000 1000"><defs><style>.c{fill:url(#b);}.c,.d,.e,.f,.g,.h,.i{stroke-width:0px;}.d{fill:#333641;}.e{fill:#59626b;}.f{fill:#8e9b9b;}.g{fill:#32323d;}.h{fill:#d2dcdd;}.i{fill:#fefefe;}</style><linearGradient id="b" x1="500" y1="1000" x2="500" y2="0" gradientUnits="userSpaceOnUse"><stop offset="0" stop-color="#adc9d2"/><stop offset=".12" stop-color="#a2c1cd"/><stop offset=".32" stop-color="#86aec1"/><stop offset=".58" stop-color="#588fae"/><stop offset=".88" stop-color="#196594"/><stop offset="1" stop-color="#00548a"/></linearGradient></defs><circle class="c" cx="500" cy="500" r="500"/><path class="d" d="M525.48,640.46,418.55,640.62c-4.16,0-8.32-.24-12.47-.57-3.8-.3-5.82.92-7.39,4.8-13.19,32.56-24.29,65.93-38.49,98.09-1.39,3.14-3.17,5.62-5.7,7.97-3.09,2.87-7.47,4.37-9.24,8.77-.6,1.49-9.86,2.03-10.45.6-.99-2.42-2.69-1.28-3.91-1.29-10.83-.15-21.66-.27-32.49-.07-3.69.07-5.81-1.27-7.44-4.44-1.78-3.49-4.28-6.63-5.94-10.17-1.82-3.89-3.81-3.28-6.69-1.3-8.2,5.63-16.68,10.86-24.73,16.68-5.02,3.63-10.64,2.89-15.73,2.22-3.93-.52-7.82-.89-11.77-1.09-2.46-.13-5.86,1.68-6.32-3.13-.12-1.25-2.32-.79-3.59-.79-8.5-.03-16.99,0-25.49.02-6.82.01-6.85-.06-4.07-6.13,9.58-20.88,19.16-41.76,28.7-62.66,1.53-3.36,3.8-7.06-2.97-7.35-2.38-.1-1.41-2.35-.96-3.55,1.44-3.9,3.13-7.71,4.7-11.56,4-9.87,7.97-19.76,11.96-29.63,3.23-7.99,5.86-9.46,14.31-7.69,2,.42,2.81-.66,3.55-1.94,2.44-4.2,4.02-8.77,5.53-13.36.49-1.49.11-2.2-1.44-3.04-5.74-3.1-7.16-7.24-4.76-13.21,1.86-4.63,3.86-9.21,5.87-13.78,1.43-3.25,2.8-6.59,7.52-5.63,1.51.31,2.25-1.14,3.09-2.18,3.41-4.21,5.31-9.19,7.35-14.12,12.82-31.08,25.75-62.12,38.5-93.23,4.7-11.49,8.96-23.16,13.53-34.7.56-1.42.48-3.98,3.82-2.27,2.62,1.34,5.53-.59,7.62-2.56,2.24-2.11.09-4.19-.86-5.8-3.57-5.98-.3-11.15,1.77-16.28,12.53-31.03,25.23-62,37.92-92.97,7.68-18.76,15.48-37.48,23.15-56.25,10.97-26.86,21.84-53.75,32.8-80.61,9.7-23.75,19.49-47.45,29.18-71.2,1.22-3,2.61-4.3,6.42-4.24,20.65.34,41.31.18,61.97.08,3.35-.02,5.92.33,7.61,3.89,1.37,2.89,3.81,5.26,5.76,7.88,3.88,5.23,11.58,4.75,14.75-.92.24-.43.58-.81.8-1.25,5.13-10.05,7.35-11.18,18.3-9.58,1.72.25,2.32,1.04,2.95,2.66,10.7,27.18,21.5,54.31,32.34,81.43,3.31,8.27,2.55,16.14-2.46,23.39-5.6,8.11-4.56,15.89-.51,24.35,4.69,9.8,7.73,20.35,12.95,30.03.66-.89,1.23-1.68,1.81-2.46,1.95-2.62,3.62-3.23,5.05.48.65,1.68,1.99,3.11,2.49,4.81.83,2.83,2.45,3.42,4.83,2.19,2.27-1.18,2.9.2,3.57,1.87,5.54,13.82,11.14,27.62,16.59,41.47,1.61,4.1-1.4,7.61-2.19,11.39-.4,1.89-.27,3.32.18,5.15.58,2.33,1.67,3.11,3.24,1.63,2.74-2.6,3.29-.16,3.94,1.47,17.55,43.73,35.1,87.47,52.52,131.25,4.79,12.04,8.74,24.41,14.06,36.25.55,1.23,1.36,2.78-.03,3.63-3.54,2.17-1.46,4.39-.77,7.06,2.43,9.52,5,18.92,9.15,27.92,4.98,10.81,9.13,22.01,13.72,33,1.53,3.66,2.37,7.27.15,10.91-3.21,5.28-2.8,10.98-.75,16.2,7.17,18.25,14.82,36.31,22.22,54.47,1.36,3.34,4.49,2.85,7,3.29,2.16.38,3.25.76,4.05,3.18,6.15,18.66,14.55,36.44,21.73,54.7,5.08,12.92,10.43,25.74,15.58,38.63,2.17,5.44,1.42,5.65-4.15,6.62-23.54,4.12-47.26.31-70.8,2.08-14.79,1.12-29.53.32-44.28.82-1.46.05-2.71.45-4.12,1.05-3.84,1.62-7.87,2.04-11.85-.37-3.83-2.32-7.65-4.82-12.18-5.59-1.45-.25-3.64-1.16-3.84,1.54-.12,1.58.94,3.54-1.88,3.47-2.06-.05-4.52.92-5.89-1.52-3.47-6.2-7.33-11.83-14.74-14.01-1.95-.57-2.37-3.1-3.07-4.96-7.05-18.69-14.33-37.3-20.92-56.15-1.94-5.56-3.89-11.24-4.94-17.21-.97-5.49-6.43-9.11-7.84-14.71-.28-1.11-.91-2.14-1.4-3.19-.94-2.04.97-4.8-1.67-6.41-3.4-2.08-7.29-2.21-11.06-2.59-12.8-1.29-25.64-1.95-38.51-2.15-4.77-.07-9.28-.59-14.09,1.38M496.79,380.13c-9.62,24.49-18.72,47.68-27.82,70.86-4.42,11.26-8.98,22.47-13.23,33.8-2.22,5.92-.52,8.33,5.51,8.37,16.48.1,32.97.16,49.45.06,3.23-.02,5.78.76,8.03,3.1,4.51,4.69,9.57,7.52,16.63,6.84,7.15-.69,8.52-2.37,5.87-9.17-11.79-30.26-23.47-60.57-35.23-90.84-2.86-7.37-5.87-14.68-9.21-23.02Z"/><path class="h" d="M799.83,740.97c-9.76-24.76-19.85-49.38-30.84-73.63-.54-1.2-1.25-2.32-1.88-3.48-.62-1.7-1.19-3.43-1.88-5.11-7.83-18.89-15.69-37.78-23.53-56.67-.21-.4-.43-.79-.64-1.19-3.01-7.84-5.9-15.73-9.89-23.15-.37-1.26-.69-2.55-1.13-3.78-4.6-12.79-11.74-24.45-16.12-37.41-3.48-10.28-8.54-20.01-13.27-30.84-.76,3.15.42,4.87,1.09,6.65,3.4,9.17,7,18.27,10.31,27.47,4.66,12.93,9.79,25.67,15.63,38.11.88,2.31,1.77,4.61,2.65,6.92-.12.38-.24.75-.36,1.13-1.25-.44-1.64-1.58-2.1-2.64-3.65-8.39-7.63-16.65-10.85-25.2-7.2-19.13-17.02-37.08-25.01-55.86-3.42-8.05-11.24-14.13-17.84-20.39-1.34-1.27-3.05-2.14-4.98-.93-1.8,1.12-2.19,2.94-1.94,4.79.42,3.14,1.52,6.1,2.9,8.96.72,1.49,1.73,3.02-.27,4.36-3.95-10.39-9.48-20.17-12.13-31.07.41-.22.82-.43,1.24-.65,4.63-.69,3.33-3.64,2.27-6.28-5.95-14.8-11.97-29.57-17.96-44.36-5.24-12.94-10.41-25.91-15.76-38.8-.5-1.2-.04-4.08-3.04-3.03-2.28-.37-1.26-2.13-1.42-3.39,1.23-2.37,1.7-5.07.12-7.14-2.39-3.14-2.7-6.89-4.04-10.33-5.82-14.96-11.79-29.85-17.65-44.79-5.78-14.73-11.92-29.35-17.02-44.32-1.87-5.51-4.31-9.76-8.83-13.23-4.03-3.1-8.27-6.02-11.57-10-.06-.65.02-1.36-.2-1.96-10.77-28.74-21.5-57.49-32.42-86.17-1.7-4.48-2.72-9.37-6.18-13.1,2.75,12.99,8.47,24.98,12.1,37.64-.84-.19-1.65-.17-2.34.42-.26-.11-.44-.04-.55.22-.45-1.05-1.34-1.32-2.37-1.35-.27-.17-.53-.34-.8-.51-.47-.95-.93-1.89-1.4-2.84-2.22-7.99-5.7-15.52-8.65-23.24-.15-1.87-.85-3.54-1.91-5.07-.43-1.47-.17-3.35-2.32-3.77l.02.03c.58-.68.13-1.32-.09-1.96,0-1.33-.04-2.73,1.27-3.53,2.51-1.53,2.71-3.93,2.59-6.48l1.24-.49c12.25.1,24.5.19,36.74.29,12.32,28.17,19.3,58.79,38.47,83.82.05,2.72,1.59,4.89,2.66,7.23,4.21,14.64,10.07,28.62,17.09,42.12,4.21,10.45,8.36,20.93,12.66,31.35,2.19,5.32,3.36,11.13,7.27,15.65.06.15.1.32.2.43.05.06.22.03.33.04l-.54-.46c-2.1-8.32-6.25-15.88-9.03-23.94-2.89-8.38-7.87-15.99-9.11-24.96,1.9-3.2,3.62-4.35,5.42.16.85,2.14,2.31,4.03,3.39,6.08.63,1.2,1.49,1.95,2.75,1.27,3.41-1.84,4.47.51,5.42,2.95,5.15,13.11,10.21,26.25,15.42,39.34,1.68,4.22-.81,7.77-1.62,11.51-.51,2.33-.17,4.15.44,6.2.3,1,1.13,1.62,1.79,1.15,5.28-3.77,5.08,1.52,6.03,3.86,12.95,32.05,25.83,64.13,38.58,96.27,8.93,22.52,17.63,45.14,26.46,67.71.75,1.93,1.61,3.68-.59,5.28-2.3,1.67-.61,3.64-.14,5.4.62,2.3,2.63,4.27,1.58,6.96-1.37-2.51-2.74-5.02-4.18-7.65-4.43,5.95-4.39,6.56.55,11.19-.39,1.43.51,2.53,1.01,3.71,3.75,8.8,5.44,18.12,6.84,27.5-5.07-8.43-7.82-17.89-11.86-26.79-2.51-5.52-4.67-11.21-6.98-16.82-.38.14-.76.28-1.14.42.87,2.39,1.71,4.8,2.62,7.18,6.65,17.19,13.14,34.44,21.01,51.13,1.74,4.44,3.37,8.92,5.24,13.3,2.24,5.25,3.6,10.89,7,15.62.06,3.44,1.9,6.3,3.13,9.32,6.39,15.74,12.98,31.39,19.28,47.17,1.25,3.14,2.83,4.51,6.23,4.39,2-.07,4.74-.62,5.34,2.62-3.37,3.3-6.52,6.84-4.51,12,5.31,13.6,10.81,27.12,16.23,40.68,3.4,8.39,6.81,16.77,10.21,25.16,1.19,5.22,3.77,9.92,6.22,14.55,1.77,3.34,4.31,6.78,8.91,7.05-2.67,2.05-6.33-.25-8.95,2.04-4.24-.8-8.49-1.29-12.84-1.26-16.3.12-32.61.05-48.91.11-1.76,0-3.69-.58-5.26.81-13.71.05-27.42.07-41.13.18-1.73.01-3.67-.65-5.15.95-.44,0-.87,0-1.31,0-.57-1.66-1.14-3.31-1.71-4.97,2.53.92,5.13,1.17,7.82,1.17,28.82-.01,57.64.04,86.46.07,5.99,0,11.98,0,17.97-.05,1.63-.01,3.73.24,2.69-2.6-1.53-4.18-1.98-8.78-4.75-12.49ZM673.79,472.32c.65,2.61,3.59,3.44,4.31,6.34,1.74,7,6.64,11.79,12.7,15.44,1.07,1.15,2.01,2.64,4.31,1.69-2.2-3.27-2.12-6.24.79-8.83,2.18-1.9.46-4.45,1.09-6.6,7,4.87,13.99,9.74,20.99,14.61.12.08.24.16.36.24-.14-.06-.28-.11-.42-.17-.57-6.26-4.03-11.49-6.16-17.19-1.35-3.61-3.13-6.5-8-4.82-2.44.84-5.2.72-7.82,1.04v-.04c-.17-.49-.33-.98-.49-1.47-7.86-19.49-15.73-38.98-23.59-58.47-1.93,2.08-.57,3.31-.62,4.76-.25.83-.05,1.93-1.28,2.2-10.02-21.56-16.87-44.44-28.09-66.66-.33,5.99-3.35,2.25-5.93,1.84,3.66,9.72,6.98,18.9,10.57,27.97,8.99,22.72,18.13,45.38,27.08,68.12.49,1.26,2.85,3.44-.17,4.4-2.58.82-5.38.77-6.11-2.95-.25-1.29-.45-2.62-.94-3.83-10.77-26.27-21.56-52.52-32.39-78.77-.79-1.9-1.45-3.99-3.64-5.15-1.15,3.37.18,6.11,1.28,8.83,8.04,19.89,16.16,39.75,24.18,59.66,3.83,9.5,7.49,19.06,11.22,28.59-.59-.58-1.05-.12-1.51.21-.03.02.06.36.15.39.66.21,1.11-.02,1.3-.7,1.34-.35,2.67-.71,4.01-1.06-.28.55-.44,1.23-.86,1.65-3.79,3.81-3.56,5.13,1.44,7.65.74.37,1.49.73,2.24,1.09Z"/><path class="f" d="M334.22,425.13c-4.34-5.72-4.39-11.54-1.22-17.95,3.07-6.22,5.43-12.8,8.1-19.22,4.74-1.48,8.81-3.86,11.28-8.39,1.3-2.38,1.72-5.62,5.43-5.72-1.89,6.53-5.03,12.54-7.65,18.77-1.96,4.64-4.17,9.27-4.21,14.56,3.21-7.41,6.41-14.83,9.62-22.24,2.08,1.36,2-.54,2.51-1.63,3.33-7.13,6.65-14.27,10.05-21.37.93-1.95,2.84-5.23,4.38-3.72,2.14,2.11,2.98,1.12,4.33.03,2.45-2,3.84-1.56,4.3,1.6.86,6.04,5.41,7.89,10.45,9.11,1.14.28,2.6.23,2.94,1.48,1.2,4.42,3.76,4.23,7.32,2.02-1.7,3.04-.27,6.37-1.88,8.91-4.09,6.45-5.62,13.84-8.14,20.87-.67,1.88.88,1.76,1.65,2.4-.49,3.06-3.17,5.23-3.43,8.39-.39.31-1.29-.18-1.24.75,0,.19.46.54.64.51.74-.14.83-.67.54-1.3,6.89-1.71,12.75-5.54,18.04-9.93,2.67-2.21-1.31-1.65-2.12-2.49,9.96-19.98,16.95-41.29,27.2-61.15.21,5.68-2.2,10.51-4.33,15.43-.91,2.12-1.47,4.44,1.72,5.05,5.16.99,6.12,5.11,7.2,9.17.23.85-.84,1.9.3,2.69,4.37,3.03,9.54.26,14.12,1.9.18.07.82-.6.96-1.01,1.34-4.08,7.03-4.65,7.56-9.47.1-.94,1.53-1.09,2.59-.78-.11.65-.11,1.35-.34,1.95-11.27,29.14-22.69,58.22-33.78,87.43-6.08,16.02-13.17,31.67-18.17,48.09-2.05,5.01-4.14,10-6.11,15.04-.39.99-1.95,2.31.25,3.2,1.53,1.54,3.47.87,5.22.87,43.6.04,87.21.02,130.81,1l-.09-.03c2.23,3.85-2.28,1.38-2.73,3.19,2.1,1.36,1.39,5.26,4.97,5.76,2.89,5.94,4.05,12.58,7.52,18.28.51,1.03-.66,2.96,1.94,3.12-.43-1.32-.54-2.55-1.63-3.38-1.73-6.6-3.23-13.3-7.72-18.77,1.03-1.34-4.75-2.97.18-4.15,2.43.57,2.41,2.94,3.12,4.61,2.31,5.45,4.36,11,6.51,16.51q2.1,7.08-5.53,7.01c-1.33-.01-2.66.03-3.99.03-59.87-.06-119.74-.13-179.62-.19-.68-1.48-3.05-.16-3.63-2.46.98-.16,1.96-.62,2.79-.42,5.33,1.29,10.83.84,16.12.68,15.85-.47,31.86,2.3,47.54-2.07,1.26-.35,2.38-.91,2.44-2.07.08-1.59-1.43-1.64-2.56-1.52-10.15,1.12-20.29,1.72-30.45-.05-1.88-.33-3.65-.41-4.69-2.21-1.23-2.12,1.92-2.4,1.84-4.07-3.62-2.46-9.96-1.76-9.69-8.61.03-.88-1.09-1.02-1.99-.92-4.26.48-4.26-2.85-4.1-5.34.39-6.11.17-9.87-1.37-15.16-.28-.95.16-2.9.81-3.2,4.72-2.13,1.34-3.79-.16-5.58,1.82-6.32,5.91-11.86,6.42-18.63.36-.33.59-.69.09-1.05-.05-.03-.39.34-.6.53-5.12,10.37-10.24,20.74-15.36,31.11-.59-.27-1.18-.54-1.77-.81-1.42-7.15-5.76-13.31-6.99-20.52,2.85,2.78,6.55,4.62,8.42,8.48,1.45,3.01,3.2,3.69,4.89-.12,2.52-5.68,5.43-11.06,5.48-17.66.04-4.32.76-4.34-3.41-4.71-1.04-.09-1.21-1.02-1.8-1.55-6.27-5.55-9.41-12.75-10.76-21.14-3.07,1.82-2.15,6.33-5.65,7.4-3.95-10.95-9.33-21.36-12.58-32.57-1.26-4.35-3.1-5.99-7.25-3.2-.52.35-1.23.41-1.85.6ZM349.02,418.02c.05,1.54.16,3.05,1.6,4.21.54-1.92-.09-3.23-1.59-4.21-.32-1.42.32-3.17-1.51-4.24-.53,1.88.48,3.06,1.5,4.24ZM351.73,425.2c.02-.15.04-.29.07-.44-.18.04-.37.08-.55.12.05.13.07.29.16.39.03.04.21-.05.32-.08Z"/><path class="e" d="M569.18,580.77c-2.14,1.75-.69,3.53-.14,5.4,2.82,9.62,8.88,17.78,12.15,27.19,1.97,5.67,4.51,11.07,7.2,16.42,1.83,3.64,3.43,7.4,6.78,10-3.71.01-7.47.89-11.11-.57,1.63-.8,1.04-1.78.18-2.71-2.46-2.65-4.8-5.43-8.16-7.04-.68-.58-1.43-.55-2.21-.24-1.31-.1-2.61-.21-3.92-.31-.19-2.83,3.98-.96,3.92-3.65,2.03-1.95-.5-3.61-.1-5.27-6.72,1.37-13.27.24-19.77.46-22.26.75-44.52.24-66.78.5-4.15.05-8.22-1.6-12.37-.62-7.87,1.85-15.86.36-23.67.11-7.25-.24-14.48.32-21.71.16-16.2-.36-32.42.24-48.63.4-.59,0-1.18-.48-1.78-.73.91-1.72,2.55-1.1,3.96-1.27,1.49-.19,3.77.63,3.81-1.9.04-2.93-2.49-1.83-4.09-2.11-.16-.03-.33,0-.49,0-2.79,0-5.67.24-3.65-4.18.45-.98-.35-2.53-.58-3.82.14-.13.29-.26.43-.4-.09.02-.21.02-.25.07-.08.1-.1.23-.15.35-2.76-1.2-.14-3.46-1-5.03l-.03.03c2.54-1.02,2.84-3.32,3.36-5.59.83-3.63,3.76-6.04,5.58-9.1,17.44-.04,34.88-.13,52.32-.12,22.61.02,45.23.11,67.84.18,9.63,1.09,19.26,1.16,28.89,0,7.94-1.08,15.94.93,23.87-.48.74-.01,1.94.28,1.75-.87-.27-1.6-1.68-.99-2.74-.88-7.56.03-15.12.07-22.68.1-9.11-.24-18.22-.47-27.33-.71.05-.55.1-1.11.15-1.66,2.07-1.56,4.46-.74,6.69-.8,12.17-.32,24.36.69,36.52-.4,1.65.2,3.84.7,1.82-2.09-1.02-1.41-2.49-2.48-3.76-3.7,6.05.15,12.1.12,18.1-.83.66.52.67,1.23.57,1.96-.48.33-1.01.65-.43,1.3.02.02.43-.3.66-.46.95.76.86,1.87.98,2.91ZM558.41,589.63c2.9,6.92,4.31,14.47,9.28,20.53-2.99-6.89-4.66-14.33-9.28-20.53ZM568.3,612.67c-.04.14-.15.29-.12.41.12.49.34.51.54.06.05-.11-.02-.3-.09-.42-.04-.06-.22-.03-.33-.04ZM569.74,615.85c-.08-.12-.15-.23-.23-.35-.09.1-.29.25-.27.29.09.16.24.3.37.44.04-.13.08-.25.12-.38Z"/><path class="i" d="M398.14,250.36c1.34-7.48,5.15-14.06,7.91-21,9.92-24.93,20.06-49.78,30.2-74.63,6.75-16.54,13.69-33,20.42-49.54,1.15-2.83,2.64-3.97,5.83-3.89,8.31.23,16.62.06,24.93,0,2.01-.02,3.97.06,5.86.8.08,1.66.17,3.32.25,4.99-1.07-.07-2.13-1.49-3.17-.27-.74.87-.09,1.9.34,2.78.59,1.18,1.23,2.34,1.85,3.5.11.64.21,1.29.32,1.93-2.51,1.11-5.03,2.23-7.54,3.34-6.67-2.39-13.24-2-19.74.68-3.87,4.84-5.81,10.45-6.61,16.52-3.68,3.86-4.62,9.08-6.59,13.74-11.22,26.55-22.22,53.2-33.3,79.81-4.37,9.97-8.75,19.94-13.12,29.92-1.07-.35-2.15-.69-3.22-1.04-1.54-2.54-3.09-5.09-4.63-7.63Z"/><path class="e" d="M347.96,753.77c3.5-8.94,6.94-17.9,10.54-26.8.88-2.19,1.44-3.77.25-6.38-1.94-4.25.16-8.76,1.53-12.96,4.1-12.56,8.41-25.06,12.18-37.78-4.97,7.98-6.91,17.37-12.42,25.16,2.57-7.05,5.63-13.96,7.56-21.17,1.98-7.41,7.97-12.71,9.54-20.32.88-4.25.2-6.16-4.29-5.54-3.65.51-5.59-.79-7.08-4.31-1.66-3.93-4.33-7.44-6.59-11.11-.91-1.47-2.26-3.43.75-3.46,11.58-.12,23.14-2.17,34.74-.51.14.02.26.2.38.31.13,1.79,1.35,2.17,2.8,2.02,6.07-.62,11.7.96,17.36,2.96,3.09,1.09,4.97,2.5,4.67,5.95-.59,0-1.18.01-1.77.02-2.38-1.43-4.77-1.4-7.15,0-.96,0-1.93,0-2.89,0-1.33-1.21-2.67-1.23-4.02-.05-2.77-.19-4.39.64-5.49,3.65-7.7,20.99-15.5,41.94-23.59,62.78-5.1,13.12-10.4,26.19-16.38,38.92-1.86,3.97-5.01,8.32-10.61,8.62Z"/><path class="h" d="M357.81,373.84c-3.71.1-4.13,3.34-5.43,5.72-2.48,4.53-6.54,6.92-11.28,8.39,10-24.72,19.95-49.46,30.02-74.16,7.76-19.03,15.65-38.01,23.52-56.99.55-1.32.87-2.85,2.3-3.63,1.01,2.31,2.01,4.62,3.02,6.92.48,1.38.96,2.76,1.44,4.15.92,3.01.41,5.74-.84,8.66-14.32,33.61-28.52,67.28-42.75,100.93Z"/><path class="f" d="M419.87,639.85c.3-3.45-1.58-4.86-4.67-5.95-5.66-2-11.29-3.58-17.36-2.96-1.45.15-2.67-.23-2.8-2.02,26.24-.2,52.48-.88,78.71-.43,18.09.31,36.18-.17,54.26.52,2.73,4.71,7.03,7.38,11.94,9.27-2.1,1.06-4.27,1.7-6.67,1.7-37.81-.05-75.61-.08-113.42-.12Z"/><path class="i" d="M574.03,102.03c9.83,24.46,19.66,48.91,29.48,73.37.61,1.51.21,3.34,1.47,4.65-.4,1.72-.58,3.59-2.85,3.96-5.28-6.16-9.35-13.27-15.02-19.13-2.09-2.16-3.89-3.19-4.12,1.18-.29.65-.58,1.3-.87,1.95-5.12-12.73-10.16-25.49-15.4-38.17-1.38-3.34-2.06-7.06-4.75-9.77.31-1.9-.68-3.53-1.18-5.24-2.17-7.35.09-11.35,7.33-12.5,1.94-.31,3.94-.2,5.91-.28Z"/><path class="e" d="M622.95,674.98c5.38,2.75,8.69,8,14.7,12.41-3.93-10.44-7.36-19.54-10.77-28.64-9.61-25.61-19.21-51.23-28.81-76.85.65.03,1.29.05,1.94.08,3.48,5.69,5.3,12.1,7.58,18.28,8.71,23.65,17.14,47.41,25.71,71.12,1.18,3.27,2.6,6.45,3.83,9.71,1.29,3.4,3.05,6.16,7.05,6.85,1.5.26,4.03.7,3.4,2.71-.73,2.34-2.75-.36-4.25.12-.87.28-1.8-.99-2.8-.18,1.85,7.01,6.03,13.13,7.5,20.26-1.85,1.35-.93,2.96-.35,4.46,3.92,10.3,7.99,20.55,11.74,30.91.92,2.55,3.39,5.65,1.86,7.78-1.26,1.76-4.32-1.24-6.76-1.12-.17,0-.33.01-.5.02,0,0-.02,0-.02,0-.38-.34-.77-.69-1.15-1.03-.27-.6-.54-1.2-.81-1.8-.34-.39-.68-.77-1.02-1.15,0,0,0-.03,0-.03-.87-3.6-1.49-7.36-5.6-8.93-4.92-9.14-7.47-19.24-11.5-28.75-2.25-5.3-3.98-10.83-5.94-16.25,2.32-2.52-.03-4.68-.69-6.84-1.34-4.41-3.99-8.39-4.34-13.14Z"/><path class="e" d="M328.96,452.04c-2.74-.29-3.7,1.54-4.58,3.66-9.06,21.81-18.13,43.61-27.24,65.4-2.8,6.7-6.63,7.59-12.11,2.9,5.97-14.53,11.97-29.05,17.89-43.59,6.12-15.02,12.26-30.03,17.59-45.35.61.15,1.68.18,1.76.47,1.36,5.05,5.1,9.14,5.77,14.45.26.21.45.48.56.8.12.42.24.84.36,1.26Z"/><path class="i" d="M493.7,102.13c2.4-1.77,5.12-.72,7.67-.77,8.11-.15,16.22.02,24.32-.1,2.85-.04,4.99.4,6.52,3.27,1.29,2.42,3.79,4.19,5.04,6.62,2.11,4.11,5.23,5.65,9.62,5.2.05,1.23.09,2.45.14,3.68-8.47.07-16.96.49-25.41.06-5.03-.25-7.8,1.37-8.87,6.15-1.48.76-1.61,2.42-2.41,3.63-1.06,1.62-1.52,4.2-3.67,4.31-2.3.12-2.51-2.73-3.79-4.15-1.81-9.71-4.53-19.13-9.16-27.91Z"/><path class="h" d="M539.95,638.27c-4.91-1.89-9.22-4.56-11.94-9.27,3.99.02,7.97.04,11.96.07,9.02,1.22,18.04,1.2,27.06.04.97-.07,1.95-.13,2.92-.2,1.31.1,2.61.21,3.92.31.74.08,1.47.16,2.21.24,3.35,1.61,5.7,4.39,8.16,7.04.87.93,1.45,1.91-.18,2.71-.76-.32-1.52-.93-2.28-.93-13.94-.04-27.89-.01-41.83,0Z"/><path class="f" d="M599.96,220.91c-1.08-2.34-2.61-4.51-2.66-7.23,1.23-2.09.35-3.96-.61-5.82-.59-2.23-1.19-4.45-1.78-6.68.86-.71,1.18-1.42,0-2.14l.05.08c-.27-1.73-.53-3.45-.8-5.18,2.55-.42,1.74-2.46,1.77-3.95.06-2.6.12-5.16,1.63-7.46,1.41.7,2.27,1.6,2.42,3.06.1,1.31.42,2.44,2.06,2.46l-.06-.07c-.07,1.52.08,2.9,2.05,3.06l-.06-.04c.35.35.71.71,1.06,1.06l-.05-.07c.69,3.7,2.39,7.21,1.98,11.1-.86,4.63-3.39,8.55-5.37,12.7-.78,1.64-1.77,3.19-1.65,5.11Z"/><path class="e" d="M599.99,185.59c-.15-1.46-1.02-2.36-2.42-3.06-1.51,2.3-1.57,4.86-1.63,7.46-.03,1.49.77,3.52-1.78,3.95-3.72-9.3-7.44-18.6-11.15-27.9.23-4.38,2.03-3.34,4.12-1.18,5.66,5.86,9.74,12.97,15.02,19.13,1.58,3.02,3.56,5.75,5.98,8.16.26.24.51.47.77.71,0,1.28.1,2.66-1.67.99-.7-.66-1.48-1.24-2.23-1.86,0,0,.05.07.05.07-.08-.63-.35-1.06-1.06-1.06,0,0,.06.04.06.04.03-1.5-.85-2.38-2.05-3.06,0,0,.06.07.06.07-.69-.82-1.37-1.64-2.06-2.46Z"/><path class="f" d="M814.9,757c-4.6-.27-7.14-3.71-8.91-7.05-2.45-4.63-5.03-9.33-6.22-14.55,1.82-2.4,1.39-7.01,6.28-6.39,3.12,7.35,6.3,14.67,9.32,22.06.79,1.94,1.35,4.09-.48,5.93Z"/><path class="e" d="M602.89,642.23c3.06-1.7,7.82.54,9.58-4.43.53-1.5,1.93-.45,2.58.64,1.84,3.13,3.49,6.36,4.5,9.87.17.58.11,1.78,0,1.8-7.33,1.37-2.52,6.96-3.42,10.44-.69,2.69.26,5.81.48,8.74-2.7-1.63-2.74-4.7-3.76-7.19-2.81-6.89-5.75-13.69-9.96-19.86Z"/><path class="e" d="M806.06,729c-4.89-.62-4.46,4-6.28,6.39-3.4-8.38-6.8-16.77-10.21-25.16,2.78-.75,5.55-1.51,8.33-2.26.09.21.11.43.05.66-.09.91-.07,1.78.91,2.27,2.4,6.03,4.8,12.06,7.2,18.09Z"/><path class="e" d="M277.98,540.96c.63,1.16-1.32,6.21,2.92,1.94.52-.52,1.74-.46,1.63-.05-.72,2.83,3.5,3.36,2.47,6.82-2.61,8.79-9.7,12.49-16.76,16.45,2.44-8.7,5.39-17.2,9.74-25.16Z"/><path class="f" d="M213.88,679.84c.3-.59.45-1.44.93-1.72,11.07-6.43,13.73-18.3,18.41-28.75,2.97-6.64,6.7-13.03,8.14-20.31,1.27-.08,2.53-.17,3.8-.25-8.33,18-12.94,37.92-27.14,52.91-.52-2.53-2.65-1.49-4.14-1.88Z"/><path class="h" d="M547.01,120.04c-.05-1.23-.09-2.45-.14-3.68,3.91.26,5.24-2.66,6.7-5.43,5.43-10.37,8.27-11.75,19.78-9.57.26.05.46.44.69.67-1.97.08-3.97-.02-5.91.28-7.23,1.15-9.5,5.15-7.33,12.5.51,1.71,1.49,3.34,1.18,5.24-4.99,0-9.98-.01-14.97-.02Z"/><path class="f" d="M249.8,607.75c4.15-9.83,9.07-19.34,12.51-29.48.37-1.09.94-2.1.72-3.31.91.15,1.55-.33,2.22-.87.97-.78,1.94-2.57,3.23-1.48,1.16.98.81,2.93-.12,4.15-7.69,10.14-9.52,22.87-15.1,33.93-.37.73-.78,1.43-1.17,2.14.37-2.2-1.35-3.47-2.28-5.1Z"/><path class="f" d="M654.02,752.91c.17,0,.33-.01.5-.02,2.45-.11,5.5,2.88,6.76,1.12,1.53-2.13-.94-5.24-1.86-7.78-3.75-10.36-7.82-20.61-11.74-30.91-.57-1.51-1.49-3.11.35-4.46,2.35,5.68,4.69,11.35,7.04,17.03,2.84,7.27,5.68,14.53,8.52,21.8.2,2.14,1.44,3.69,2.91,5.1-1.41.57-3,1.27-2.91,2.97.08,1.62.53,3.05-1.79,3.13-1.84.06-3.84.28-4.7-1.85-.86-2.13-2.95-3.63-3.08-6.12Z"/><path class="e" d="M746.23,574.79c1.23,3.7-.75,6.12-3.29,8.32-.94-1.73-1.88-3.45-2.83-5.18-.61-1.39-.73-3.05-2.18-3.98,0,0,.05.09.05.09-.48-5-3.12-9.33-4.38-14.09,1.72-.48,1.88-3.27,4.21-2.85,2.81,5.9,5.61,11.8,8.42,17.7Z"/><path class="f" d="M738.93,758.7c1.58-1.39,3.5-.8,5.26-.81,16.3-.06,32.61,0,48.91-.11,4.35-.03,8.6.46,12.84,1.26-1.19,1.3-2.78.89-4.22.89-20.93,0-41.86-.03-62.79-.05,0-.39,0-.78,0-1.17Z"/><path class="h" d="M325.38,432.13c4.13,13.11,8.93,25.99,13.89,38.81.62,1.6,2.01,3.16.84,5.09-1.89-1.14-2-3.29-2.76-5.03-1.76-4.01-2.49-8.47-5.36-11.98-.65-2.48-1.58-4.84-3.03-6.97-.12-.42-.24-.84-.36-1.26-.19-.27-.37-.54-.56-.8-.67-5.31-4.41-9.4-5.77-14.45-.08-.29-1.15-.32-1.76-.47,1.7-.85-.66-8.46,4.87-2.93Z"/><path class="f" d="M335.14,757.01c-.07.64-.14,1.29-.21,1.93-12.32,0-24.65-.03-36.97,0-2.67,0-5.04-.28-5.81-3.41,12.63.1,25.25.2,37.88.3,1.43,1.59,3.47.51,5.11,1.19Z"/><path class="h" d="M746.23,574.79c-2.81-5.9-5.61-11.8-8.42-17.7-4.54-13.09-10.74-25.47-16.18-38.17.55-.83,1.39-.83,2.24-.79,7.42,17.81,14.84,35.63,22.27,53.44.45,1.08,1.02,2.12.08,3.22Z"/><path class="e" d="M738.93,758.7c0,.39,0,.78,0,1.17-4.16,1.53-8.5.98-12.78,1.01-9.45.06-18.9.05-28.35.01-1.76,0-3.7.55-5.15-1.06,1.47-1.6,3.41-.94,5.14-.95,13.71-.11,27.42-.13,41.13-.18Z"/><path class="e" d="M210.01,755.86c4.99-1.76,10.13-.5,15.2-.78,4.13-.22,8.28-.08,12.41-.01,3.16.05,6.35.31,7.96-3.52-.16,4.65-2.43,6.48-6.84,6.38-5.45-.13-10.91.16-16.37.26-3.53-3.93-8.29-1.32-12.37-2.33Z"/><path class="f" d="M618.83,261.14c1.23,8.97,6.22,16.58,9.11,24.96,2.78,8.06,6.93,15.61,9.03,23.94h.01c-3.92-4.53-5.08-10.34-7.27-15.66-4.3-10.42-8.45-20.9-12.66-31.35.59-.63,1.19-1.26,1.78-1.89Z"/><path class="e" d="M743.88,594.06c-3.4-4.73-4.76-10.37-7-15.62-1.87-4.38-3.51-8.86-5.24-13.3.43-.37.85-.74,1.27-1.12,1.88,3.24,2.18,7.28,5.08,10.01,0,0-.05-.09-.05-.09-.52,1.85.74,3.25,1.21,4.85,1.01,2.56,1.34,5.45,3.67,7.35.35,2.64.71,5.28,1.06,7.92Z"/><path class="h" d="M608.11,192.16c-2.42-2.41-4.39-5.14-5.98-8.16,2.27-.37,2.45-2.24,2.85-3.96,2.64,3.63,3.09,7.82,3.12,12.11Z"/><path class="h" d="M604.99,192c.74.62,1.52,1.2,2.23,1.86,1.77,1.67,1.68.29,1.67-.99,2.2,3.94.03,7.06-1.91,10.23.41-3.89-1.29-7.41-1.98-11.1Z"/><path class="e" d="M399.96,260.1c-1.01-2.31-2.01-4.62-3.02-6.92.4-.94.8-1.88,1.2-2.82,1.55,2.55,3.09,5.09,4.63,7.64-.88.38-.86,1.18-.92,1.95-.63.05-1.26.1-1.9.15Z"/><path class="f" d="M645.42,739.96c4.11,1.57,4.73,5.33,5.6,8.93-1.1-.38-2.19-.76-3.29-1.14-.77-2.6-1.54-5.2-2.31-7.79Z"/><path class="f" d="M742.81,586.14c-2.33-1.9-2.66-4.79-3.67-7.35.32-.29.64-.58.97-.87.94,1.73,1.88,3.45,2.83,5.18-.04,1.01-.08,2.02-.12,3.03Z"/><path class="f" d="M410.95,639.87c2.38-1.4,4.77-1.43,7.15,0-2.38,0-4.77,0-7.15,0Z"/><path class="f" d="M404.04,639.81c1.36-1.18,2.7-1.15,4.02.05-1.34-.02-2.68-.04-4.02-.05Z"/><path class="e" d="M278.99,537.99c.03,1.11.18,2.26-1,2.96-.03-1.11-.12-2.24,1-2.96Z"/><path class="g" d="M798.86,710.91c-.98-.48-1-1.35-.91-2.27.81.55.99,1.36.91,2.27Z"/><path class="e" d="M347,755.83c-.02-.75.03-1.46.8-1.86.13.79-.03,1.46-.8,1.86Z"/><path class="f" d="M651.02,748.93c.34.38.68.77,1.02,1.15-.34-.38-.68-.77-1.02-1.15Z"/><path class="f" d="M652.85,751.89c.38.34.77.69,1.15,1.03-.38-.34-.77-.69-1.15-1.03Z"/><path class="e" d="M358.88,521.16c2.8-3.35-.47-6.53-.32-9.83.06-1.41-.52-2.91-1.05-4.28-.85-2.16,0-3.77,1.82-4.46,2.1-.79,2.01,1.6,2.78,2.66,1.18,1.63.8,4.42,3.61,4.85.59.27,1.18.54,1.78.81,1.5,1.33,2.34,1.59,3.68-.65,2.19-3.66,2.76-8.12,5.78-11.32,1.5,1.79,4.88,3.46.16,5.58-.65.29-1.09,2.25-.81,3.2,1.54,5.28,1.76,9.05,1.37,15.16-.16,2.49-.17,5.82,4.1,5.34.9-.1,2.02.04,1.99.92-.27,6.85,6.07,6.15,9.69,8.61.08,1.68-3.07,1.95-1.84,4.07,1.04,1.8,2.82,1.88,4.69,2.21,10.17,1.77,20.3,1.16,30.45.05,1.13-.12,2.64-.07,2.56,1.52-.06,1.16-1.19,1.72-2.44,2.07-15.68,4.36-31.7,1.6-47.54,2.07-5.29.16-10.79.61-16.12-.68-.82-.2-1.81.25-2.79.42.58,2.29,2.95.97,3.63,2.46-1.21,1.31-3,1.26-4.2.78-4.01-1.59-4.94,1.2-6.06,3.82-5.8,13.59-11.62,27.17-17.32,40.8-.99,2.37-2.39,4.93-.36,7.53-.67.35-1.28.71-.02,1.09l-.02-.03c-.09,6.53,3.15,12.09,5.42,17.88,5.51,14,12.3,27.5,16.55,42-.1,1.31.11,2.76-1.58,3.31-.71-7.66-3.97-14.44-7.36-21.17-5.31-15.05-12.54-29.35-17.99-44.51v7.24c-.44,2.71.26,5.19,1.74,7.42-2.07,1.65-3.69-.52-5.44-.09-1.12.28-3.27-.54-2.79,1.63.86,3.95-1.05,2.62-3.47,2.7-7.6.26-15.09-.51-22.6-1.32-1.91-.2-4.12.52-4.79-2.3-.2-.82-1.02-1.68-1.83-1.34-7.12,3.04-12.24-4.04-18.89-3.7-1.65.09-2.49-1.66-.38-3,1.06-.67,2.84-1.12,2.01-2.84-.57-1.18-1.9-1.85-3.4-1.4-2.13.64-2.34-.5-1.88-2.1.76-2.67.75-5.64,2.96-7.75,1.54-1.47,1.74-4.03.62-4.77-2.81-1.85-1.53-3.81-.77-5.62,11.87-28.44,23.82-56.84,35.75-85.26,1.43,2.24,2.28-1.58,4.2.21-3.07,3.27-2.13,8.13-4.28,11.96-1.46,2.61.04,4.73,1.23,5.87,2.15,2.05,1.63-1.39,2.63-2.04.78-.51,2.16-.46,1.96-.08-1.38,2.66,3.96,6.22-1.65,8.45,2.75-.38,4.95.9,5.15,2.57.71,5.73,4.69,7.66,9.24,9.37.83.31,1.44,1.33,2.02,2.13,1.66,2.28,3.49,2.58,5.89,1.01,2.75-1.8,5.59-2.93,7.55,1.15.37.77.96,1.46,1.93,1.18,1.32-.38,1.08-1.37.86-2.4-.7-3.31,1.87-3.67,3.46-2.6,3.8,2.54,5.76-.23,7.32-2.39,2.98-4.14,5.66-8.64,3.44-14.17Z"/><path class="f" d="M358.88,521.16c2.22,5.53-.46,10.03-3.44,14.17-1.55,2.16-3.51,4.93-7.32,2.39-1.59-1.06-4.17-.71-3.46,2.6.22,1.04.45,2.03-.86,2.4-.97.28-1.56-.41-1.93-1.18-1.96-4.08-4.8-2.95-7.55-1.15-2.4,1.57-4.23,1.27-5.89-1.01-.58-.79-1.19-1.82-2.02-2.13-4.55-1.71-8.53-3.64-9.24-9.37-.21-1.67-2.41-2.95-5.15-2.57,5.6-2.23.27-5.79,1.65-8.45.2-.38-1.17-.43-1.96.08-1,.65-.48,4.09-2.63,2.04-1.19-1.14-2.69-3.26-1.23-5.87,2.14-3.83,1.21-8.69,4.28-11.96-1.92-1.79-2.78,2.03-4.2-.21,5.74-13.32,10.58-27.01,17.04-40.02,4.15,1.69,5.34,5.36,6.86,9.2,2.63,6.69,4.64,13.69,8.61,19.82.97,1.5,1.37,1.57,1.94-.1,6.07,11.31,8.56,24.18,15.3,35.94.65-2.54-.39-3.95-.98-5.45-4.84-12.17-9.68-24.34-14.52-36.51.4-.35.81-.7,1.21-1.05,6.18,12.38,10.25,25.61,15.5,38.36Z"/><path class="f" d="M551.24,581.67c-12.17,1.09-24.35.09-36.52.41-2.23.06-4.62-.76-6.69.8-25.89.01-51.78.05-77.67.01-2.44,0-5,.59-7.29-.86,1.31-4.31,5.09-4.81,8.58-4.97,6.81-.32,13.64-.12,20.46-.17,1.75-.01,3.93.54,3.8-2.44.98-.15,1.95-.42,2.93-.42,27.84-.03,55.68-.03,83.52-.02,1.1,0,2.37-.38,3.14.87,1.03,3.01,5.04,3.5,5.75,6.78Z"/><path class="f" d="M379.06,620.26c.59.25,1.19.74,1.78.73,16.21-.16,32.43-.75,48.63-.4,7.23.16,14.45-.4,21.71-.16,7.81.25,15.8,1.74,23.67-.11,4.16-.98,8.22.67,12.37.62,22.26-.26,44.52.25,66.78-.5,6.5-.22,13.05.91,19.77-.46-.41,1.66,2.13,3.32.1,5.27-.63-.1-1.26-.19-1.9-.29-1.43-1.67-3.38-.97-5.1-.98-7.9-.05-15.8-.05-23.7.07-2.05.03-4.3-.8-6.14.89-5.65.09-11.3.27-16.95.26-49.29-.1-98.58-.23-147.88-.39-1.58,0-3.29.5-5.08-.77,3.1-4.46,7.55-4.04,11.94-3.78Z"/><path class="f" d="M349.98,685.97c-6.46,16.28-12.93,32.57-19.38,48.85-.79,1.99-1.86,3.92-1.63,6.18l.05-.06c-10.56,1.83-21.19.73-31.79.77-3.35.01-6.83.63-10.18-1.28,1.17-.13,2.34-.36,3.5-.37,9.81-.05,19.61-.05,29.42-.1,3.55-.02,6.56.96,7.73-4.96,1.6-8.12,5.43-15.87,8.85-23.53,4.39-9.83,7.31-20.25,12.31-29.82,2.29.94-.73,3.26,1.12,4.31Z"/><path class="h" d="M455.9,574.45c.13,2.98-2.05,2.43-3.8,2.44-6.82.05-13.65-.15-20.46.17-3.49.16-7.27.66-8.58,4.97-5.24.44-10.11-.31-14.12-4.12-5-4.74-10.06-5.14-15.11-.05-1.83-.29-3.43-.89-3.88-2.98,1.46-.3,2.9-.62,4.37-.89,6.85-1.24,13.63.1,20.41.27,13.69.35,27.45.38,41.18.19Z"/><path class="e" d="M375.28,576.79c-3.85,5.46-6.77,11.17-8.75,17.75-2.85,9.5-7.34,18.5-11.17,27.7-1.09,2.61-2.23,5.16-2.39,8.07-.14,2.54-1.94,4.11-3.85,5.51-.32-.66-.65-1.32-.97-1.99.68-4.58,2.28-8.86,4.29-12.98,1.68-3.43-.79-8.5,4.23-10.58,1.77-8.77,6.23-16.59,9.03-25.01,1.5-4.51,2.47-10.85,9.63-10.99-.02.84-.03,1.68-.05,2.52Z"/><path class="h" d="M506.11,587.37c-22.61-.06-45.23-.16-67.84-.18-17.44-.01-34.88.07-52.32.12-1.68-.42-3.32-.38-4.91.38-.04-.57-.09-1.13-.13-1.7,7.64-1.82,15.38-.46,23.07-.78,1.37,1.01,2.74.99,4.11.02,6.63-.05,13.26-.09,19.9-.14.94.89,2.13.8,3.28.8,23.22,0,46.43,0,69.65-.02,1.16,0,2.33.01,3.32-.77.65-.03,1.3-.06,1.95-.09-.02.79-.04,1.58-.06,2.36Z"/><path class="e" d="M342.17,483.84c4.84,12.17,9.68,24.34,14.52,36.51.6,1.5,1.63,2.91.98,5.45-6.74-11.76-9.23-24.64-15.3-35.94-3.85-10.24-7.7-20.48-11.55-30.71.39-.04.77-.09,1.16-.13,2.87,3.51,3.6,7.98,5.36,11.98.76,1.74.88,3.89,2.76,5.03,0,0-.06-.09-.06-.09-.1.92-.31,1.9,1.05,2.08,0,0-.05-.08-.05-.08-.39,1.56-.36,3,1.03,4.11l-.05-.11c.04.64.09,1.27.13,1.91Z"/><path class="h" d="M330.82,459.14c3.85,10.24,7.7,20.48,11.55,30.71-.57,1.67-.97,1.6-1.94.1-3.97-6.14-5.98-13.13-8.61-19.82-1.51-3.84-2.7-7.51-6.86-9.2,1.3-2.73,2.89-4.52,5.86-1.79Z"/><path class="f" d="M348.15,633.83c.32.66.65,1.33.97,1.99,3.29,8.74,5.57,17.86,9.87,26.22.77,1.49,1.7,3.11-.96,3.77-4.25-14.5-11.04-28-16.55-42-2.28-5.79-5.51-11.35-5.42-17.88,1.68,1.1,1.86,3.01,2.54,4.66,3.2,7.74,5.21,15.97,9.56,23.24Z"/><path class="h" d="M331.1,610.68v-7.24c5.45,15.16,12.68,29.46,17.99,44.51-.3.3-.6.6-.9.9-4.17-10.06-9.47-19.66-12.62-30.16-.89-2.97-2.45-5.64-4.47-8.01Z"/><path class="f" d="M506.11,587.37c.02-.79.04-1.57.06-2.36.56-.16,1.13-.31,1.69-.47,9.11.23,18.22.47,27.33.7-.07.71-.13,1.41-.2,2.12-9.63,1.16-19.26,1.09-28.89,0Z"/><path class="f" d="M504.22,585.1c-.98.78-2.15.77-3.32.77-23.22,0-46.43.01-69.65.02-1.15,0-2.34.1-3.28-.8,25.42-.46,50.83-.49,76.25.01Z"/><path class="f" d="M389.94,574.88c.45,2.09,2.05,2.68,3.88,2.98-2.97,3.18-5.8,6.86-10.8,3.22.35-3.07-1.92-4.08-4.07-5.19-.14-.39-.28-.77-.42-1.16,1.8-.21,3.6-.42,5.4-.62.41.14.81.29,1.22.43,1.6.12,3.19.23,4.79.35Z"/><path class="f" d="M212.12,729.96c3.88,7.91,9.4,12.73,19.15,9.67-12.23,5.52-18.82.33-20.18-9.72.35.02.69.03,1.04.05Z"/><path class="e" d="M335.14,757.01c-1.64-.68-3.69.41-5.11-1.19,5.63-3.4,7.1-9.75,10.46-14.75.6-.9.62-2.3,2.94-2.57-2.52,5.74-4.87,11.1-7.22,16.45-1.07.29-1.32,1.05-1.14,2.03l.08.02Z"/><path class="f" d="M348.19,648.84c.3-.3.6-.6.9-.9,3.39,6.73,6.65,13.5,7.36,21.17-.09.33-.19.66-.29,1-.98.35-1.96.7-2.93,1.04,1.83-4.17.16-7.96-1.23-11.82-1.26-3.5-3.31-6.72-3.81-10.5Z"/><path class="e" d="M353.23,671.16c.98-.35,1.95-.7,2.93-1.04-1.5,5.5-3.54,10.8-6.18,15.86-1.85-1.05,1.17-3.37-1.12-4.31.63-3.85,2-7.38,4.37-10.5Z"/><path class="h" d="M537.03,624.94c1.84-1.69,4.09-.86,6.14-.89,7.9-.11,15.8-.12,23.7-.07,1.72.01,3.66-.69,5.1.98-11.65,0-23.29-.02-34.94-.03Z"/><path class="e" d="M260.81,614.77c.92-5.59,3.84-10.34,6.63-15.15-1.32,5.47-3,10.8-6.13,15.58-.17-.14-.34-.28-.5-.43Z"/><path class="f" d="M567.03,629.1c-9.02,1.16-18.04,1.18-27.06-.04,9.02-.55,18.04-.61,27.06.04Z"/><path class="f" d="M328.98,741c3.2-.74,6.23-1.94,9.26-3.77-1.5,5.15-5.34,6.57-9.21,3.71,0,0-.05.06-.05.06Z"/><path class="h" d="M378.95,575.89c2.15,1.11,4.42,2.12,4.07,5.19-2.89-.87-4.37-4.28-7.74-4.29.02-.84.03-1.68.05-2.52,1.01.19,2.02.38,3.02.57-.27.62,0,.93.6,1.05Z"/><path class="e" d="M246.06,650.7c-1.03,4.15-2.74,8.03-4.88,11.74-.41-.16-.82-.33-1.22-.49,1.65-3.9,3.3-7.81,4.95-11.71.38.15.77.31,1.15.46Z"/><path class="e" d="M224.96,697.89c1.07-5.07,2.76-9.89,5.83-14.14.14.11.28.22.42.33-1.35,4.95-3.07,9.73-6.07,13.96l-.18-.15Z"/><path class="e" d="M235.12,675.02c-.31,3.45-1.98,6.32-3.92,9.06-.14-.11-.27-.22-.42-.33.49-3.38.35-7.05,4.12-8.91l.21.18Z"/><path class="e" d="M217.1,715.99c.04,3.56-1.77,6.41-3.59,9.26.39-3.4,1.36-6.59,3.5-9.33l.09.07Z"/><path class="e" d="M267.7,614.41c-2.18-2.36-1.64-4.34,1.13-7.03-.5,3.1-.82,5.06-1.13,7.03Z"/><path class="e" d="M377.58,597.18c-.2-2.14.29-3.95,2.36-6.57-.06,3.31-.79,5.11-2.36,6.57Z"/><path class="e" d="M236.91,669.86c.13-2.15.9-3.98,2.56-5.68,1.44,3.12-.49,4.51-2.21,5.97l-.35-.29Z"/><path class="e" d="M252.44,634.58c.58,2.16-.29,3.66-2.07,5.15-.57-2.49.82-3.81,2.07-5.15Z"/><path class="e" d="M246.51,648.78c-.77-2.42.51-3.81,2.27-5.88.32,2.84-.55,4.37-2.27,5.88Z"/><path class="e" d="M256.13,626.5c.08-3.27.71-4.88,2.61-6.28.57,2.47-.68,3.84-2.61,6.28Z"/><path class="e" d="M217.01,715.92c.2-2.08.7-4.01,2.95-5.92-.12,2.96-1,4.71-2.86,5.99,0,0-.09-.07-.09-.07Z"/><path class="e" d="M225.13,698.04c-.13,1.77-.49,3.42-2.69,4.99.21-2.61.92-4.09,2.51-5.14,0,0,.18.15.18.15Z"/><path class="e" d="M372.99,608.96c.14-1.53-.37-3.27,1.56-4.48.81,2.04-.23,3.33-1.49,4.54l-.07-.06Z"/><path class="e" d="M261.31,615.2c-.29,1.19-.07,2.62-1.77,3.44-.88-1.79.12-2.85,1.27-3.86.16.15.33.29.5.43Z"/><path class="e" d="M377.04,601.96c-.66.06-1.58,1.09-1.87-.25-.21-.95.19-2,1.44-1.94.17,0,.28,1.45.41,2.22l.03-.03Z"/><path class="e" d="M269.53,594.5c.87,1.44.3,2.34-1,3.07-.87-1.43-.35-2.36,1-3.07Z"/><path class="e" d="M356.13,708.74c-.49.55-.9,1-1.31,1.46-.22-.33-.68-.74-.6-.96.21-.56.65-1.03,1-1.53.25.29.51.58.9,1.03Z"/><path class="e" d="M351.05,717.97c.09-1.26-.14-2.66,1.41-3.42,1.05,1.81-.19,2.6-1.45,3.38l.04.03Z"/><path class="e" d="M358.66,700.84c-.24-.95-.55-1.45-.41-1.76.23-.54.74-.96,1.13-1.43.16.4.51.85.42,1.19-.14.56-.57,1.05-1.14,1.99Z"/><path class="e" d="M358.5,704.49c-.56.24-1.15.54-1.77.69-.09.02-.6-.77-.5-1.02.21-.55.69-.99,1.06-1.47.23.34.45.68,1.21,1.8Z"/><path class="e" d="M212.12,729.96c-.35-.02-.69-.03-1.04-.05.11-1,.54-2.52,1.35-2.23,1.13.41.5,1.58-.31,2.28Z"/><path class="e" d="M380.9,585.99c.04.57.09,1.13.13,1.7.12.63-.25,1.69-.5,1.44-.98-1.01-.67-2.19.36-3.14Z"/><path class="f" d="M408.08,585.22c-1.37.97-2.75,1-4.11-.02,1.37,0,2.74.01,4.11.02Z"/><path class="e" d="M351,717.93c-.12.72-.23,1.45-.35,2.17-.13-.08-.34-.13-.38-.24-.27-.84.05-1.45.77-1.9,0,0-.04-.03-.04-.03Z"/><path class="e" d="M373.06,609.02c-.1.41-.2.82-.3,1.24-.17-.11-.34-.22-.51-.33.25-.32.49-.65.74-.97,0,0,.07.06.07.06Z"/><path class="e" d="M220.84,707.91c-.05.13-.1.26-.14.39-.13-.15-.29-.28-.38-.45-.02-.04.18-.19.28-.3.08.12.16.24.24.36Z"/><path class="e" d="M253.91,630.87c.19-.44.01-1.44.75-1.09.59.28.03.98-.41,1.37l-.33-.28Z"/><path class="e" d="M254.24,631.14c-.2.46,0,1.53-.8,1.13-.63-.31-.03-1.03.47-1.41,0,0,.33.28.33.28Z"/><path class="e" d="M343.48,736.35c-.07-.11-.14-.22-.21-.33.16-.09.32-.18.48-.27.02.13.08.29.03.4-.04.09-.2.14-.3.2Z"/><path class="e" d="M371.38,612.66c.11,0,.29-.02.32.04.07.11.13.3.08.4-.2.44-.42.42-.54-.05-.03-.11.08-.26.13-.4Z"/><path class="f" d="M335.06,756.99c-.17-.99.08-1.74,1.14-2.03-.2.78-.11,1.72-1.14,2.03Z"/><path class="e" d="M237.26,670.15c-.24.42-.09,1.45-.81,1.07-.59-.31-.02-.99.46-1.36,0,0,.35.29.35.29Z"/><path class="e" d="M234.91,674.84c.14-.42.28-.84.42-1.27.18.13.52.36.51.38-.21.37-.47.71-.71,1.07,0,0-.21-.18-.21-.18Z"/><polygon class="e" points="255.58 627.28 255.66 627.57 255.42 627.53 255.58 627.28"/><polygon class="e" points="249.57 641.29 249.65 641.56 249.42 641.52 249.57 641.29"/><path class="h" d="M459.01,135.57c.8-6.07,2.74-11.68,6.61-16.52,6.57-.5,13.2.72,19.74-.68,2.51-1.11,5.03-2.23,7.54-3.34,2.62,5.25,3.84,11.1,6.98,16.12.22.8.49,1.59.64,2.41,1.18,6.63,6.78,10.92,8.88,17.17,4.61,13.68,9.54,27.22,15.4,40.47,10.8,24.41,19.81,49.57,30.96,73.85,5.12,11.16,9.51,22.65,14.23,33.99,1.26,3.39,2.51,6.79,3.77,10.18.74,1.94,1.48,3.89,2.22,5.83.85,3.2,2.1,6.22,3.92,8.99.51.86.22,2.5,2.04,2.06,0,0-.03-.04-.03-.04-.98,1.66-.12,3.32.44,4.7,4.72,11.62,9.62,23.18,14.46,34.75.14.55.28,1.11.42,1.66.49.7.41,1.92,1.7,1.91l-.02-.03c-.02.4-.05.79-.07,1.19-.11,2.18,2.13,4.29.18,6.53-1.86,1.45-2.72,1.22-3.73-1.21-4.74-11.44-9.76-22.77-14.69-34.13-1.44-3.71-2.83-7.45-4.33-11.13-20.76-50.98-41.53-101.96-62.32-152.93-.85-2.09-2.13-3.46-4.3-4.84-4.37-2.78-8.46-6.34-9.81-12.01-2.15-9.03-5.44-17.4-14.97-21.32-1.14-2.93-2.23-5.87-3.42-8.77-2.09-5.12-5.04-5.75-10.8-1.18,8.01-1.83,10.13,2.43,11.14,8.03.12.68.98,1.24,1.5,1.85-.5,3.24,2.87,3.05,4.16,4.7-.2.64-.3,1.34.46,1.6.25.09.71-.43,1.07-.67,6.19,3.58,6.76,10.38,8.95,16.14,1.74,4.56,3.38,8.82,7.69,11.78,3.52,2.41,5.88,5.79,7.55,10.04,9.52,24.14,19.39,48.15,29.26,72.15,4.39,10.67,9.13,21.19,13.56,31.84,7.66,18.39,14.16,37.24,22.32,55.43,1.94,5.06,3.6,10.26,5.92,15.14,1.8,3.78,1.09,6.77-1.07,9.95-.88,1.3-1.81,2.84-.99,4.63,2.74,5.14,5.49,10.27,8.23,15.41,13.13,33.22,26.25,66.45,39.4,99.66,1.62,4.1,3.35,8.17,5.25,12.78-6.24-1.59-9.03-5.56-11.07-10.52-8.56-20.91-16.69-42.03-26.05-62.58-7.12-15.64-12.15-32.14-20.1-47.4.59-3.24.95-6.54,1.84-9.7.84-2.97,2.79-5.69,1.09-9.07-1.21,8.09-12.38,12.83-7.3,23.11-.66.15-1.28.28-1.9.43-1.15.28-3.07-.62-3.08,1.43,0,1.32,1.49,1.51,2.68,1.7,2.87.46,4.59,2.82,6.17,4.71,1.59,1.91,2.71,5.09-1.46,6.15-2.38.6-2.66,2.73-2.71,4.26-.2,6.21-4.64,7.05-8.51,5.47-3.71-1.52-6.62-3.16-10.45-.82-.84.51-2.63-.12-2.65-1.51-.03-1.82,1.4-.48,2.17-.62,1.29-.24,1.18-1.24.53-1.76-1.5-1.17-2.81-2.42-5.26-1.2-3.12,1.55-4.86,4.32-7.23,6.52-8.6-21.99-17.21-43.98-25.78-65.98-4.43-11.39-8.77-22.81-13.16-34.22-2.49-8.27-5.49-16.33-9.56-24.83-10.27,27.06-20.15,53.1-30.03,79.13-1.06-.31-2.49-.16-2.59.78-.53,4.82-6.22,5.39-7.56,9.47-.14.42-.77,1.08-.96,1.01-4.58-1.65-9.75,1.12-14.12-1.9-1.14-.79-.07-1.84-.3-2.69-1.08-4.06-2.04-8.18-7.2-9.17-3.19-.61-2.63-2.92-1.72-5.05,2.12-4.93,4.54-9.75,4.33-15.43-10.26,19.86-17.24,41.18-27.2,61.15-2.64,3.56-6.96,4.56-10.98,7.55,1.2-3.91,2.15-7.01,3.1-10.1,5.3-10.6,9.16-21.82,13.74-32.72.43-1.03.97-2.13.27-3.3,0,0-.03.04-.03.04,1.34.08,1.1-1.15,1.51-1.84,1.53-3.29,3.08-6.57,4.58-9.87,3.52-7.8,5.51-16.24,10.05-23.6,1.15.76.47,2.63,1.96,3.18.22.44.46.87.66,1.33.61,1.39,1.8,2.45,3.08,1.56,1.88-1.31-.46-1.93-.82-2.93-.93-2.58-1.53-5.29-2.26-7.95.32-1.62,1.34-3.11.93-4.86,1.96-1.16,3.37-3.16,3.6-5.08.42-3.5,5.46-5.95,2.48-10.02-4.78-6.53-8.5-13.78-12.22-20.8-3.66-6.9-11.06-11.5-11.97-19.96-.12-1.08-1.66-.83-2.56-1.16-.64-2.82-.33-5.55.74-8.23,2.87-7.19,5.7-14.39,8.55-21.58.46-.87,1-1.7,1.37-2.61,8.39-20.19,16.89-40.34,25.09-60.62,4.21-10.42,9.23-20.54,12.23-31.44Z"/><path class="e" d="M674.98,645.99c-.84-.1-1.81-.27-2-1.17-1.16-5.67-7.4-8.13-8.59-13.82-.41-1.97-1.89-2.14-3.27-.67-1.36,1.46-3.03,1.88-4.91,1.86-7.07-4.35-13.73-8.68-15.89-17.85-1.62-6.87-5.05-13.31-7.67-19.95-.68-1.71-1.32-3.46-3.65-3.41-2.39-4.41-6.83-1.02-10.03-2.54-.55-.26-.92,1.18-.93,2.01-.02,1.49-.51,2.84-2.12,2.81-1.34-.03-2.41-1.2-2.79-2.45-4.13-13.64-10.76-26.33-15.08-39.89,1.4-.1,4.04-.14,1.89-2.13-3.44-3.18-1.23-7.28-3.21-10.36,2.18-1.21,3.91,3.41,5.74-.37,2.68-5.49,8.73-5.48,13.34-7.81.1-.05.44.36.73.62-.77,1.6-2.67,1.21-3.7,2.24-.87.87-1.06,2.21-.04,2.42,2.98.59,5.72,4.06,9.11.93,2.54-2.34,4.13-.77,5.5,1.48,2.58,4.23,8.28,5.47,16.43,2.93,4.54-1.42-.99-3.97.18-5.98.15-.26,0-.7.14-.97,1.19-2.36-.67-3.54-1.47-5.4-2.12-4.95-8.07-7.06-8.76-12.75-.2-1.63-1.5-2.33-2.71-2.6-3.47-.77-4.76-2.56-3.44-5.97,5.24.06,8.3,4.51,11.14,7.39,3.69,3.74,8.51,5.83,11.89,9.9,3.19,3.84,3.72,8.74,6.42,12.64,1.04,1.51.19,4.86,3.73,4.12-.76,6.12,5.75,5.86,8.36,9.16,3.35,4.24,7.04,7.95,7.94,13.54.02.13,1.16.07,1.77.1-.17,1.69.24,3.22.88,4.81,5.21,13.02,10.32,26.09,15.48,39.13,4.01,10.12,8.33,20.1,12.17,30.31,2.71,7.2,6.06,14.22,8.42,21.61-.37.32-.77.96-1.1.93-4.35-.44-4.35-.47-3.32,4.48,4.05-2.52,5.34-1.63,5.79,4-1.77,1.03-1.4-3.49-2.99-1.37-.86,1.16-2.46,2.57-1.71,4.8,1.95,5.87,2.64,11.46-2.89,16.3-2.32,2.03.41,4.96.6,7.51.11,1.41,1.39,3.17-.37,3.98-2.27,1.03-1.88-1.64-2.7-2.62-1.29-1.54-2.29-3.25-2.38-5.36-.05-.99-.08-2.21-1.33-2.37-8.34-1.02-1.39-5.53-1.94-8.32,2.07.38,1.68,2.78,3.22,4.03-.15-1.29-.07-2.33-.4-3.24-6.84-18.98-13.74-37.94-20.6-56.91-.3-.83-.6-1.66-1.56-1.67-5.27-.05-10.55-.02-16.71-.02,1.97,2.41,3.16,2.52,4.84,2.35,9.04-.9,11.16.5,14.42,8.9,2.16,5.56,4.57,11.03,6.41,16.69,3.11,9.59,8.29,18.46,9.98,28.54-4.28.13-6.97-1.69-8.65-5.82-.91-2.25-1.17-6.49-6.14-4.18-1.72.8-1.65-2.13-1.31-3.34.54-1.92.32-2.77-1.65-3.72-1.67-.8-3.4-2.45-4.09-4.13-1.79-4.35-3.01-8.93-4.46-13.41.12-.04.25-.06.35-.13.06-.04.06-.16.09-.25-.13.14-.27.27-.4.41Z"/><path class="f" d="M627.79,507.21c-1.32,3.41-.02,5.2,3.44,5.97,1.2.27,2.51.97,2.71,2.6.69,5.69,6.64,7.81,8.76,12.75.8,1.86,2.66,3.04,1.47,5.4-.14.28,0,.71-.14.97-1.17,2,4.36,4.56-.18,5.98-8.15,2.54-13.85,1.29-16.43-2.93-1.37-2.25-2.96-3.82-5.5-1.48-3.39,3.13-6.13-.34-9.11-.93-1.02-.2-.83-1.55.04-2.42,1.03-1.03,2.93-.63,3.7-2.24-.29-.25-.63-.67-.73-.62-4.61,2.33-10.66,2.32-13.34,7.81-1.84,3.77-3.57-.85-5.74.37,1.98,3.07-.23,7.18,3.21,10.36,2.15,1.99-.49,2.03-1.89,2.13-6.27-15.33-12.62-30.62-18.78-45.99-8.49-21.2-16.91-42.43-25.21-63.7-4.26-10.92-8.21-21.96-12.3-32.95,2.37-2.2,4.11-4.97,7.23-6.52,2.45-1.22,3.77.03,5.26,1.2.66.51.76,1.51-.53,1.76-.77.15-2.2-1.2-2.17.62.03,1.39,1.82,2.02,2.65,1.51,3.83-2.35,6.74-.7,10.45.82,3.87,1.58,8.3.74,8.51-5.47.05-1.52.32-3.65,2.71-4.26,4.18-1.06,3.06-4.24,1.46-6.15-1.58-1.89-3.31-4.26-6.17-4.71-1.19-.19-2.69-.38-2.68-1.7.01-2.05,1.94-1.15,3.08-1.43.62-.15,1.24-.28,1.9-.43-5.08-10.28,6.09-15.02,7.3-23.11,1.69,3.38-.26,6.11-1.09,9.07-.89,3.16-1.25,6.46-1.84,9.7-2.95.45-1.57,2.22-1.12,3.7,3.4,11.28,7.91,22.13,12.29,33.05,9.77,24.37,19.29,48.84,29.26,73.13.97,2.35-.33,5.04,1.77,6.9.07.38.15.75.22,1.13,0,0-.07.2-.07.2-.57-.14-1.44-.3-1.45.34,0,.91.78,1.1,1.6.68.37.56.73,1.11,1.09,1.67-.65.23-2.05-.25-1.58,1.1,1.16,3.35,3.49,5.48,7.15,5.88.26.09.52.17.79.24Z"/><path class="f" d="M579.89,324.04c-1.82-2.77-3.07-5.8-3.92-8.99,1.02.06,1.44-3.26,3.03-.4,1.43,2.58,3.04,5.12,6.36,5.83,1.23.26,1.68,1.62,2.02,2.68,3.02,9.63,11.71,14.58,17.75,21.72.4.98.8,1.97,1.2,2.95-1.51,7.73,4.42,12.17,7.89,17.68.24.38,1.19.31,1.81.45.18,1.76,1.7,2.29,2.88,3.13.15,1.42.83,2.05,2.28,1.53.62.3,1.25.6,1.87.9.16,1.26-.86,3.02,1.42,3.39-.69,5.27.91,10.11,2.84,14.89,6.18,15.29,12.29,30.61,18.51,45.89,4.31,10.59,8.76,21.13,13.14,31.69-.41.22-.82.43-1.24.65-4.03-.54-2.86,2.1-2.38,4.08,3.01,12.42,7.45,24.38,12.06,36.28,1.61,4.16,3.04,8.4,4.55,12.6-7.09,3.05-3.72-5.15-7.33-6.28-2.28,1.86-5.36,2.61-8.72,2.35-13.38-7.16-16.05-21.09-20.89-33.52-2.28-5.87-5.79-11.4-6.11-17.96.71-3.01-.83-5.53-1.92-8.08-1.12-2.62-.78-3.89,2.13-5.16,4.47-1.96,8.61-4.72,7.43-10.99,2.34.91,1.69,3.57,3.44,4.32.81-.56.85-1.19.6-1.83-3.1-8.05-6.17-16.11-9.37-24.12-.79-1.99-2.48-3.13-4.35-4.34-3.6-2.33-7.66-4.31-9.91-8.32.76-2.27,3.54-.12,4.59-2.19-1.61-3.32-3.24-6.69-4.88-10.07-.08-.48-.13-.98-.26-1.45-3.08-11.34-8.89-21.71-11.74-33.12-.35-4.37-.71-8.73-1.06-13.1-.23,0-.46,0-.69.01v12.84c-3.94-1.2-1.96-4.5-1.94-6.65.06-8.61-3.03-14.86-11.92-17.91v4.6c-1.4-1.06-1.51-2.78-2.23-4.19-1.66-3.25-1.88-7.23-4.93-9.77,0,0,.03.04.03.04.19-1.54-.46-2.26-2.04-2.06Z"/><path class="f" d="M669.88,499.1c1.99-1.33.99-2.87.27-4.36-1.38-2.85-2.48-5.82-2.9-8.96-.25-1.86.14-3.67,1.94-4.79,1.93-1.21,3.64-.34,4.98.93,6.6,6.26,14.42,12.34,17.84,20.39,7.99,18.78,17.81,36.73,25.01,55.86,3.22,8.55,7.2,16.81,10.85,25.2.46,1.06.84,2.2,2.1,2.64,0,0-.03-.04-.03-.04.09,1.57.18,3.15.27,4.72-5.54,1.43-11.05,3.02-16.64,4.21-2.29.49-2.76,1.24-1.98,3.3,5.89,15.6,10.63,31.65,18.14,46.63,4.25,11.33,8.31,22.74,12.82,33.96,4.28,10.64,8.57,21.27,12.25,32.13,1.23,3.62,2.83,7.07,4.31,10.71-2.86-1.33-4.02-4.14-5.08-6.83-5.4-13.78-10.62-27.63-16.02-41.41-20.33-51.81-40.69-103.61-61.1-155.4-2.46-6.25-5.51-12.28-7.02-18.88Z"/><path class="e" d="M729.73,644.82c-7.51-14.97-12.25-31.02-18.14-46.63-.78-2.06-.31-2.82,1.98-3.3,5.59-1.18,11.1-2.78,16.64-4.21.5.15,1.01.3,1.52.45.03,1.94-.06,3.94,2.25,4.83-.65,2.37.65,4.11,1.89,5.87.22.3.44.61.67.93.7-.68.52-1.25-.23-1.74-.63-1.75-.62-3.8-2.36-5.03.1-1.97-.48-3.68-1.98-5.02-.35-1.66-.69-3.33-1.04-4.99-.2-.37-.4-.74-.61-1.11-.88-2.31-1.77-4.61-2.65-6.92,1.17-.07,2.33-.13,3.5-.2,3.99,7.42,6.88,15.31,9.89,23.15.21.4.43.79.64,1.19,7.85,18.89,15.7,37.77,23.53,56.67.69,1.68,1.26,3.4,1.88,5.11-1.37.1-2.75.21-3.89,1.11-2.67,1.12-.06,2.75-.4,4.09-1.78,0-2.91-.78-4.05-2.28-6.36-8.44-14.73-14.41-24.23-18.83-1.79-.83-2.44-3.3-4.81-3.13ZM745.72,626.18c.25.44.07,1.53.92,1.07.6-.33.1-1.09-.4-1.53-.1-1.08-.11-2.18-.95-3.03-.3-.44-.18-1.59-1.04-1.08-.62.36-.11,1.16.39,1.65.14,1.06.21,2.14,1.09,2.92ZM758.73,657.16c.3,2.35.66,4.67,3.27,6.82-.42-3.13-1.44-5.2-2.92-7.1-1.52-5.34-3.47-10.47-6.76-15,2.01,5.16,2.82,10.82,6.41,15.29ZM737.34,604.31c.39,5.73,3.54,10.3,6.13,15.1-.73-5.59-3.29-10.4-6.13-15.1ZM751.74,638.92c-.09-.13-.18-.25-.26-.38-.11.11-.32.28-.3.31.11.18.28.33.43.48.05-.14.09-.28.14-.42Z"/><path class="e" d="M799.83,740.97c2.77,3.71,3.22,8.31,4.75,12.49,1.04,2.84-1.06,2.58-2.69,2.6-5.99.05-11.98.05-17.97.05-28.82-.03-57.64-.08-86.46-.07-2.7,0-5.29-.25-7.82-1.17-2.73-3.96-4.01-8.4-4.36-13.15,29.63.09,59.26.23,88.89.22,6.64,0,13.3.68,19.93-.29,1.32-.18,2.99,1.53,3.92-.72.6.02,1.21.03,1.81.05Z"/><path class="h" d="M528.85,413.91c-11.3-32.3-24.32-63.93-37.29-95.79-2.81,12.35-9.03,23.09-12.71,34.74-1.09-1.76-.31-3.46.1-5.2.34-1.44,1.88-3.4-.51-4.15-2.15-.67-2.58,1.65-3.09,3.04-.8,2.17-1.44,4.41-3.32,5.88-.89.7-.89,3.46-3.11,1.57,7.33-19.75,14.67-39.51,22.1-59.51,2.73,6.83,5.27,13.2,7.82,19.57,1.45,2.31-.04,6.35,4.14,7.06l-.08-.07c-1.8,1.21-.66,2.73-.21,3.93,7.1,19.01,14.27,38,21.43,56.98-.37,1.3.26,2.08,1.37,2.61.28.78.57,1.55.85,2.33-.64.99-.1,1.9.17,2.85,2.42,8.53,6.64,16.31,10.36,24.28,1.42,3.03,2.48,6.57,5.93,8.25.02.29.16.51.4.67-.4.37-.81.73-1.21,1.1-1.84-.95-3.68-1.91-5.52-2.86-.41-.08-1-.36-1.2-.19-.63.52-.18,1.03.27,1.45.51,1.5,1.02,3,1.52,4.5-.19,1.56-.2,3.28-2.59,2.8-1.43-3.92-2.86-7.84-4.29-11.77,1.37-1.29.47-1.79-.75-2.18-.08-.35-.16-.7-.25-1.04-.1-.29-.21-.57-.31-.86Z"/><path class="h" d="M616.97,407.05c2.25,4.01,6.31,5.99,9.91,8.32,1.88,1.21,3.56,2.36,4.35,4.34,3.2,8.01,6.27,16.07,9.37,24.12.25.64.21,1.27-.6,1.83-1.74-.75-1.1-3.41-3.44-4.32,1.18,6.27-2.95,9.03-7.43,10.99-2.91,1.27-3.25,2.54-2.13,5.16,1.09,2.55,2.63,5.07,1.92,8.08-4.43-6.65-6.43-14.38-9.49-21.63-7.32-17.4-14.38-34.92-21.35-52.46-1.47-3.69-3.88-7.68-.21-11.61,1.26,1.13,1.11,4.29,4.18,2.86,1.03-.48,1.3.38,1.7,1.18,1.9,3.79,3.9,7.52,5.87,11.28,1.46,4.57,3.17,8.97,7.34,11.86ZM634.72,436.44c-.11.26-.36.58-.29.76.08.19.47.25.73.37.11-.26.36-.58.29-.76-.08-.19-.47-.25-.73-.37Z"/><path class="e" d="M498.83,314.06c-2.55-6.37-5.09-12.74-7.82-19.57-7.43,20.01-14.76,39.76-22.1,59.51-.23.23-.56.43-.67.7-13.99,36.36-27.99,72.71-41.85,109.12-.63,1.65-2.47,3.71,0,6.17.35-.59.59-1.01.86-1.42,1.31-2.02,3.39-3.45,5.44-2.24,2.24,1.32-.27,3.11-.69,4.64-1.56,5.71-5.13,10.82-4.97,17.04-2.17.7-2.07,2.83-2.67,4.43-1.88,5.02-3.19,10.35-9.13,12.43-2.08.72-2.69,2.74-3.22,4.68-.73,2.68-1.47,5.36-2.2,8.04-1.26.15-2.53.35-3.7-.39,1.62-4.14,3.25-8.27,4.84-12.41.63-1.63,1.89-3.29,0-4.92,5-16.43,12.09-32.07,18.17-48.09,11.08-29.21,22.51-58.29,33.78-87.43.23-.6.23-1.3.34-1.95,9.88-26.03,19.76-52.07,30.03-79.13,4.08,8.5,7.08,16.56,9.56,24.83-.52-.06-1.05-.11-1.57-.16-1.66-.93-.74-3.61-3.26-4.4,1.05,3.67,2.02,7.08,3,10.5-.72.01-1.43.02-2.15.03ZM497.06,299.98l-.31-1.34c-.18.12-.37.23-.55.35.25.36.51.72.76,1.08.11.43.22.86.32,1.3.17-.12.35-.24.52-.36-.25-.34-.5-.68-.75-1.02ZM494.41,292.7c-.79,1.66-.35,2.9,1.06,3.87.02.01.21-.22.35-.38.27-1.41-.37-2.48-1.41-3.49ZM493.72,290.37c.02-.14.04-.28.06-.41-.17.04-.34.07-.51.11.04.13.06.27.14.38.03.03.2-.04.3-.07Z"/><path class="f" d="M534.46,429.77c2.39.48,2.4-1.25,2.59-2.8,5.49,5.97,8.16,13.54,11.58,20.66,4.65,9.67,9.07,19.44,13.51,29.21,1.02,2.25,2.08,4.59,2.48,6.99,2.56,15.2,9.52,28.92,14.57,43.27,6.49,18.45,13.83,36.61,20.81,54.89-.65-.03-1.29-.05-1.94-.08-12.14-30.25-23.25-60.91-36.11-90.87-.4-2.3-1.43-4.34-2.71-6.26-.25-.38-.51-.76-.76-1.13-.68.64-.21,1.12.21,1.62.04,2.44.49,4.77,1.81,6.88,2.3,6.6,4.6,13.2,6.9,19.79-.57.73-1.25,1.17-2.23.89-6.73-12.34-8.56-26.58-15.07-39-2.85-5.44-3.94-11.37-5.2-17.27.18-.23.56-.58.51-.66-.43-.65-.65.11-.99.19-3.27-2.86-3.51-7.23-5.13-10.86-2.17-4.9-3.28-10.28-4.85-15.45ZM551.99,460.69c-1.41-1.27-1.9-2.83-3.85-2.11.5,1.67,1.31,2.48,3.85,2.11Z"/><path class="e" d="M655.02,653.26c-1.72-.15-2.53-.25-3.34-.27-1.37-.04-2.83-.09-3.28-1.63-.19-.65.14-1.76.64-2.26,2.01-2.03,1.64,1.27,2.55,1.27,10.39-.06,11.38,9.11,14.68,15.49,3.7,7.16,6.26,14.92,9.23,22.46,1.35,3.44-.74,7.29-4.41,8.11-.75.17-1.58-.2-2.13.68-1.3,2.08-2.27,1.66-3.67-.13-1.55-1.98-.88-2.83,1-3.7,1-.47,2.58-.88,2.18-2.29-.5-1.74-1.86-.51-2.89-.35-2.96.46-4.67-1.08-4.29-3.83.26-1.87.1-2.97-1.63-3.4-3.82-.94-4.54-3.96-5.98-7.1-2.27-4.92-5.1-9.53-6.14-14.99-.38-1.99-.6-3.37,1.91-3.34,2.9.04,3.69-2.25,5.6-4.71Z"/><path class="e" d="M578.31,342.13c-8.15-18.19-14.66-37.05-22.32-55.43-4.44-10.65-9.18-21.17-13.56-31.84-9.87-24-19.74-48.01-29.26-72.15-1.68-4.25-4.04-7.63-7.55-10.04-4.31-2.96-5.95-7.22-7.69-11.78-2.19-5.76-2.75-12.56-8.95-16.14-.51-.31-1.02-.62-1.53-.93-1.29-1.65-4.66-1.46-4.16-4.7.53.02,1.06.04,1.59.07,9.53,3.91,12.82,12.28,14.97,21.32,1.35,5.67,5.44,9.23,9.81,12.01,2.17,1.38,3.44,2.75,4.3,4.84,20.79,50.97,41.56,101.95,62.32,152.93,1.5,3.69,2.89,7.42,4.33,11.13-.77.24-1.53.47-2.3.71Z"/><path class="e" d="M655.93,517.06c3.35.27,6.43-.49,8.72-2.35,3.61,1.13.24,9.34,7.33,6.28,4.91,9.97,8.26,20.52,12.36,31.17-8.74-1.7-13.02-8.75-18.82-13.56-4.93-4.09-5.44-10.85-7.34-16.64-.58-1.77-1.31-3.36-2.24-4.91Z"/><path class="f" d="M794.1,741.64c-6.63.97-13.29.29-19.93.29-29.63.01-59.26-.13-88.89-.22-5.53-9.86-8.21-20.85-12.32-31.27-.61-1.54-1.17-3.09-1.75-4.64,1-1.22,2.31-.57,3.51-.58,3.67,9.09,8.33,17.93,10.69,27.35,1.85,7.36,5.81,7.54,11.55,7.36,8.32-.27,16.65-.03,24.98-.01,3.39-.08,6.79-.16,10.18-.24,10.98.08,21.96.35,32.93.1,2.72-.06,5.34,2.27,8.05.27.96-.02,1.93-.04,2.89-.06,1.58,1.69,3.66.93,5.53,1.06,4.18.29,8.42-.48,12.57.6Z"/><path class="h" d="M629.01,590.99c2.33-.06,2.97,1.69,3.65,3.41,2.62,6.63,6.05,13.08,7.67,19.95,2.16,9.17,8.82,13.5,15.89,17.85,6.14,5.85,6.22,14.63,10.94,21.16-.32.27-.65.53-.97.8-2.58-2.07-5.63-3.76-7.65-6.28-3.57-4.45-8.25-7.61-12.21-11.57-.94-.94-1.9-1.6-2.28-2.96-4.03-14.47-9.68-28.36-15.04-42.35Z"/><path class="f" d="M716,659.93c-2.36-7.39-5.71-14.41-8.42-21.61-3.84-10.2-8.16-20.19-12.17-30.31-5.17-13.04-10.27-26.11-15.48-39.13-.64-1.59-1.05-3.12-.88-4.81,3.12,2.63,3.73,6.61,5.12,10.07,18.57,46.14,37.01,92.34,55.46,138.54,1.81,4.54,3.47,9.14,5.19,13.72-.43.17-.85.33-1.28.5-9.18-22.32-18.36-44.65-27.55-66.97Z"/><path class="e" d="M776,739.99c-.96.02-1.93.04-2.89.06-.38-2.32-2.22-2.12-3.86-2.17-1.45-.05-2.46-.53-3.16-1.94-1.81-3.67-1.09-5,2.95-4.98,6.14.03,10.13-5.23,15.89-6.5,1.94-.43-1.13-3.66-.05-6.96,4.75,7.52,6.17,15.86,11.14,22.26-6.67.08-13.34.16-20.01.24Z"/><path class="f" d="M609.62,395.19c-1.96-3.75-3.96-7.49-5.87-11.28-.4-.8-.67-1.66-1.7-1.18-3.08,1.42-2.92-1.73-4.18-2.86.38-1.04.76-2.07,1.14-3.11,1.95-2.23-.29-4.35-.18-6.53.55-.37,1.3-.72.07-1.19,0,0,.02.03.02.03.27-1.38-.16-2.14-1.7-1.91-.14-.55-.28-1.11-.42-1.67,2.25-2.08.15-4.01-.37-5.86-1.7-6.05-5.06-11.5-6.44-17.68,2.4,1.57,2.83,4.33,4.04,6.62,3.53,6.72,4.43,14.49,8.6,20.97,4.03,6.27,6.96,13.05,8.65,20.36.44,1.89,1.41,3.73,3.76,4.06-1.05,3.82-3.88-.39-5.42,1.21Z"/><path class="f" d="M701.25,680.56c-1.69-10.08-6.87-18.95-9.98-28.54-1.83-5.66-4.25-11.13-6.41-16.69-3.26-8.41-5.38-9.81-14.42-8.9-1.68.17-2.87.06-4.84-2.35,6.16,0,11.44-.02,16.71.02.95,0,1.26.84,1.56,1.67,6.86,18.97,13.75,37.93,20.6,56.91.33.9.25,1.95.4,3.24-1.53-1.25-1.15-3.65-3.22-4.03-.13-.44-.26-.89-.4-1.33Z"/><path class="e" d="M732.12,739.68c-3.39.08-6.79.16-10.18.24-6.87-1.95-13.91-2.02-20.96-1.98-.83,0-1.68.13-2.49-.03-2.06-.4-5.88,1.22-5.68-1.79.17-2.54,3.59-.81,5.39-.2,3.02,1.03,5.17-1.61,8.02-1.43,3.21.19,6.43-.4,9.67.41,2.75.69,4.12-1.55,5.62-3.38,2.36,1.37.81,4.67,3.31,6.02,1.88-.06.99-4.16,3.96-3.06,2.48.91,2.34,3.4,3.34,5.2Z"/><path class="e" d="M663.59,749.68c-2.84-7.27-5.68-14.53-8.52-21.8,2.51-.18,4.46.81,6.04,2.76,3.23,3.97,7.07,7.26,7.51,13.2.34,4.55-.49,6.32-5.03,5.84Z"/><path class="e" d="M542.8,422.29c-3.45-1.68-4.52-5.22-5.93-8.25-3.72-7.97-7.94-15.75-10.36-24.28-.27-.95-.81-1.86-.17-2.85.31.11.83.14.9.33,4.01,10.91,13.34,19.21,15.29,31.12.21,1.29.19,2.62.27,3.93Z"/><path class="e" d="M674.71,705.23c-1.2.01-2.51-.64-3.51.58-4.24-.41-8.48-.82-12.72-1.23,7.49.03,13.26-4.6,19.79-7.08,1.42,2.43-.06,3.72-1.93,4.1-2.64.52-1.97,2.04-1.63,3.63Z"/><path class="f" d="M590.4,387.25c-2.74-5.13-5.49-10.27-8.23-15.41,4.12,1.55,6.71,5.24,10.4,7.4,1.42.83,1.48,1.95.57,3.32-1,1.5-1.84,3.12-2.74,4.69Z"/><path class="e" d="M525.5,378.51c-2.6-7.19-5.2-14.38-7.8-21.57.52-.19,1.04-.39,1.56-.58,2.65,7.2,5.3,14.4,7.95,21.6l-1.71.54Z"/><path class="e" d="M776.46,696.93c2.61,6.31,5.22,12.62,7.83,18.93-.42.16-.84.32-1.26.49-2.92-6.06-6.14-11.99-7.11-18.84.03-.33.21-.53.54-.58Z"/><path class="e" d="M627,506.97c-3.66-.41-5.99-2.53-7.15-5.88-.47-1.36.94-.88,1.58-1.1,2.05,2.18,5.57,3.18,5.57,6.99Z"/><path class="h" d="M776,739.99c6.67-.08,13.34-.16,20.01-.24.67.39,1.34.78,2.01,1.17-.94,2.25-2.61.54-3.92.72-4.15-1.07-8.39-.3-12.57-.6-1.87-.13-3.95.63-5.53-1.06Z"/><path class="f" d="M765.15,670.79c3.14,3.68,4.2,8.22,5.26,12.76-.24.21-.48.42-.71.63-2.39-3.99-3.96-8.33-5.24-12.78.24-.2.47-.4.69-.62Z"/><path class="f" d="M502.21,313.85c2.12,3.93,4.3,7.83,5.05,12.82-3.26-1.01-1.68-4.91-4.36-5.62,0,0,.08.07.08.07-.39-2.3-.78-4.6-1.17-6.9.13-.13.27-.26.41-.38Z"/><path class="f" d="M500.99,314.03c-.98-3.41-1.95-6.83-3-10.5,2.52.79,1.6,3.47,3.26,4.4.32,1.97.64,3.95.96,5.92-.14.12-.27.25-.4.37-.29.02-.57-.04-.82-.2Z"/><path class="e" d="M509.35,330.74c1.46,2.35,2.47,4.84,2.79,8.73-2.67-2.93-3.29-5.46-3.44-8.19.21-.19.43-.37.64-.55Z"/><path class="f" d="M772.71,691.17c-1.53-2.1-2.57-4.42-3.01-6.99.23-.21.47-.43.71-.63,1.75,2.02,2.58,4.43,2.98,7.02-.24.2-.46.4-.69.61Z"/><path class="f" d="M762.83,669.07c.34-1.34-2.27-2.98.4-4.09.56,1.96,2.06,3.62,1.92,5.81-.22.21-.45.42-.69.62-.55-.78-1.09-1.56-1.63-2.34Z"/><path class="e" d="M541.98,424.06c.4-.37.81-.73,1.21-1.1,1.84.32,2.15,1.77,2.54,3.63-2.01.04-2.95-1.14-3.76-2.53Z"/><path class="e" d="M514.71,348.27c-.91-1.36-1.92-2.68-1.45-5.01,2.11,1.13,1.74,3,1.98,4.56-.18.16-.35.31-.53.45Z"/><path class="e" d="M602.03,408.49c2.03.51,1.77,1.71,1.9,3.03-2.06-.5-1.79-1.7-1.9-3.03Z"/><path class="e" d="M600.41,403.45c1.17.53,1.96,1.72,1.37,2.39-1.17,1.34-1.35-.3-1.61-1-.14-.37.13-.9.23-1.39Z"/><path class="e" d="M605.11,414.9c1.19.74,1.86,1.74,1.73,3.28-2.29-.12-1.61-1.92-1.95-3.09l.22-.19Z"/><path class="f" d="M775.92,697.5c-1.38-1.16-2.11-2.63-2.08-4.44.13-.11.27-.22.4-.32,1.5.99,1.63,2.71,2.22,4.19-.33.05-.51.24-.54.58Z"/><path class="e" d="M598.5,398.48c1.29.75,1.86,1.67.98,3.1-1.24-.76-1.89-1.66-.98-3.1Z"/><path class="e" d="M608.73,423.23c-1.13-.5-1.41-1.31-1.36-2.3,0-.03.62-.15.76-.03.66.6.82,1.36.6,2.32Z"/><path class="e" d="M525.48,384.58c-1.11-.53-1.73-1.31-1.37-2.61,1.67.24,2.03,1.15,1.37,2.61Z"/><path class="e" d="M620.34,498.32c-.82.42-1.61.23-1.6-.68,0-.64.88-.49,1.45-.34.05.34.1.68.16,1.03Z"/><path class="e" d="M595.97,393.03c-.25-.35-.51-.7-.75-1.07,0,0,.23-.18.36-.27.14.44.27.88.41,1.33h-.01Z"/><path class="e" d="M508.71,331.29c-.46-.45-.99-1.18-.4-1.55.8-.49.73.59,1.04,1-.22.18-.43.36-.64.55Z"/><path class="e" d="M604.89,415.09c-.23-.35-.47-.7-.67-1.07-.01-.03.32-.24.49-.36.13.41.26.83.39,1.24,0,0-.22.19-.22.19Z"/><path class="e" d="M517.51,353.5c.11.27.25.53.31.81.01.07-.22.19-.35.29-.11-.27-.25-.53-.31-.81-.01-.07.23-.19.35-.29Z"/><path class="e" d="M516.32,349.76c.44.5.96,1.31.34,1.64-.85.45-.77-.6-.95-1.11.2-.18.4-.36.61-.53Z"/><path class="e" d="M595.99,393.02c.25.33.5.65.75.98-.17.1-.35.2-.52.3-.08-.42-.16-.84-.25-1.27,0,0,.01-.01.01-.01Z"/><path class="e" d="M515.71,350.29c-.33-.67-.66-1.35-1-2.02.18-.14.35-.29.53-.45.36.65.72,1.3,1.08,1.94-.21.17-.41.35-.61.53Z"/><path class="e" d="M512.92,341.16c-.21.11-.41.22-.6.32-.05-.26-.13-.53-.13-.79,0-.1.22-.19.34-.28.13.25.26.5.39.75Z"/><path class="f" d="M773.83,693.06c-.83-.36-1.01-1.1-1.12-1.89.22-.2.45-.41.69-.6.28.72.56,1.45.84,2.17-.13.1-.27.2-.4.32Z"/><path class="e" d="M620.25,497.1c-.07-.38-.15-.75-.22-1.13.69.25.83.62.22,1.13Z"/><path class="e" d="M571.96,299.05c-.66,0-1.32,0-1.98-.01-4.72-11.34-9.1-22.84-14.23-33.99-11.15-24.28-20.16-49.45-30.96-73.85-5.86-13.25-10.79-26.79-15.4-40.47-2.11-6.25-7.7-10.54-8.88-17.17-.15-.81-.42-1.6-.64-2.41.12-.4.24-.8.35-1.21.88.03,1.76.07,2.63.1,1.28,1.42,1.49,4.27,3.79,4.15,2.15-.11,2.61-2.69,3.67-4.31.8-1.21.93-2.87,2.41-3.63,2.59-.22,4.46-3.55,7.52-1.76-.1,1.18-2.01,1.28-1.72,2.61,12.47,0,24.85.02,37.24-.02,1.92,0,4.03.57,5.64-1.11,5.9,12.78,11.51,25.66,15.72,39.13.8,2.54,1.11,7.09,1.85,7.31,4.44,1.28,3.95,5.2,4.81,8,2.59,8.46,6.37,16.37,10.18,24.29.6,1.24.71,3.05,2.7,3.17.96,1.86,1.84,3.73.61,5.82-19.17-25.03-26.15-55.65-38.47-83.82-2.17-1.83-4.78-.89-7.11-.82-9.88.32-19.79-1.17-29.64.53-.41.16-.83.33-1.24.49-3.6,1.48-5.42,6.63-11.16,4.36,1.43,2.76,6.04,2.89,3.5,6.52-.34.31-.69.62-1.04.93-.94-.57-1.7-2.08-2.91-1.41-1.47.81-.21,2.12.15,3.04,6.57,16.8,13.21,33.57,19.84,50.34-.13,2.08.91,3.84,1.63,5.67,4.39,11.11,8.55,22.32,13.38,33.24,2.29,5.19,3.38,11.09,7.74,15.27l.02.03c.6,3.1.53,6.58,4.38,7.87,2.75,5.07,6.77,8.66,11.65,11.85,5.23,3.41,7.89,9.1,8.79,15.4-4.78-7.37-12.84-11.5-18.46-19.73.66,5.49,3.17,8.73,4.65,12.36,2.87,7.06,4.3,14.71,8.51,21.24.15.67.3,1.34.45,2.01Z"/><path class="e" d="M535.76,187.04c-1.26-2.62-4.14-5-1.27-8.26.11-.26.29-.34.55-.22,2.95,6.04,5.89,12.08,8.84,18.12.49-.24.98-.47,1.47-.71-3.34-5.67-4.27-12.31-7.97-17.84-3.63-12.66-9.35-24.65-12.1-37.64,3.46,3.73,4.47,8.62,6.18,13.1,10.92,28.68,21.65,57.43,32.42,86.17.22.59.14,1.3.2,1.96-.35,1.29-.14,2.87-1.85,3.42-2.16-.69-2.84-2.46-3.57-4.42-4.53-12.14-9.11-24.27-13.85-36.33-2.1-5.36-3.64-11.06-7.87-15.35,0,0,.05.07.05.07-.1-.87-.29-1.69-1.23-2.07ZM555,225.04c.26.34-.39,1.3.72,1.07-.25-.35-.49-.7-.74-1.05-.1-1.57.35-3.35-1.67-4.45-.2,1.97.42,3.33,1.69,4.44ZM549.09,207.96c-.14-.41-.27-.82-.41-1.22-.16.13-.48.33-.47.36.18.37.42.71.65,1.06.17,1.55-.25,3.36,1.85,4.32.22-1.97-.59-3.29-1.62-4.52ZM545.39,198.48c-.42,1.61-.12,2.55,1.43,3.17.06-1.3.08-2.36-1.43-3.17ZM547.47,204.58c.11-.1.32-.22.3-.29-.06-.26-.19-.49-.29-.74-.1.1-.29.22-.28.3.05.26.17.5.26.72ZM556.43,229.44c.08-.34.13-.54.17-.73-.11.04-.33.08-.33.12,0,.15.06.3.15.62ZM552.8,217.82c-.1-.12-.19-.24-.29-.35-.11.25-.26.5-.33.76-.02.09.17.23.27.35.11-.25.23-.5.34-.75ZM551.47,215.63c.12-.11.33-.23.31-.3-.06-.26-.19-.51-.3-.77-.1.11-.3.23-.28.31.05.26.18.51.27.76Z"/><path class="e" d="M529.92,174.09c-.44.37-.87.74-1.3,1.11-.51-.74-1.03-1.48-1.54-2.22-.76-4.6-2.61-8.8-4.92-12.84.6,4.68,1.92,9.1,4.73,13.01.53,3.47.78,7.03,3.15,9.92,0,0-.03-.05-.03-.05.35,1.78.51,3.63,1.1,5.33,2.56,7.37,5.23,14.69,8.41,21.84,3.36,7.54,6.36,15.25,9.52,22.88,0,0-.03-.06-.03-.06-.17,2.41,1.89,4.51.97,7.02-3.47-4.53-4.89-10-6.89-15.19-3.96-10.29-7.79-20.62-12.46-30.61-6.16-17.45-12.32-34.89-18.47-52.34.35-.31.69-.62,1.03-.93,1.95.75,2.21,3.06,3.82,4.12h-.01c.35,3.93,2.12,7.36,4,12.18v-6.18l.29-.23c2.95,7.72,6.43,15.25,8.65,23.24Z"/><path class="e" d="M717.98,494.96c-7-4.87-13.99-9.74-20.99-14.61-.55-1.5-1.11-3-1.66-4.51.2-.6.41-1.2.61-1.8,2.62-.31,5.38-.19,7.82-1.04,4.87-1.68,6.65,1.21,8,4.82,2.13,5.7,5.59,10.94,6.16,17.19l.06-.07Z"/><path class="f" d="M731.17,577.75c-1.16.07-2.33.13-3.5.2-5.84-12.45-10.97-25.18-15.63-38.11-3.31-9.2-6.91-18.3-10.31-27.47-.66-1.78-1.84-3.5-1.09-6.65,4.73,10.83,9.8,20.57,13.27,30.84,4.38,12.95,11.52,24.61,16.12,37.41.44,1.24.76,2.52,1.13,3.78Z"/><path class="f" d="M720.13,518.81c.5.04,1.01.07,1.51.11,5.44,12.7,11.64,25.09,16.18,38.17-2.33-.42-2.48,2.37-4.21,2.85-2.95-2.72-1.95-7.69-5.67-9.98l.04.06c-1.4-9.39-3.09-18.7-6.84-27.5-.5-1.18-1.4-2.28-1.01-3.71Z"/><path class="f" d="M671.94,460.98c2.63-2.88,4.57-2.54,6,1.15,2.44,6.3,4.96,12.56,7.48,18.83,1.76,4.39,3.58,8.75,5.37,13.13-6.06-3.66-10.95-8.44-12.7-15.44-.72-2.9-3.66-3.73-4.31-6.34,1.57-1.32,3.92,2.12,5.14-.77,1.15-2.72-3.29-9.96-6.3-10.48-.25.14-.48.12-.69-.08Z"/><path class="f" d="M671.24,418.84c6.54,16.44,13.09,32.88,19.62,49.33,1.11,2.79,2.42,5.45,4.47,7.68.56,1.5,1.11,3.01,1.66,4.51-.63,2.15,1.09,4.7-1.09,6.6-2.04-7.88-5.96-15.01-8.9-22.54-5.64-14.48-11.36-28.93-17.04-43.38,1.22-.27,1.03-1.36,1.28-2.2Z"/><path class="f" d="M732.91,564.02c-.42.37-.85.74-1.27,1.12-7.87-16.69-14.37-33.94-21.01-51.13-.92-2.38-1.75-4.78-2.62-7.18.38-.14.76-.28,1.14-.42,2.31,5.61,4.47,11.3,6.98,16.82,4.04,8.89,6.79,18.35,11.86,26.79,0,0-.04-.06-.04-.06.31,5.16,4.14,9.08,4.97,14.06Z"/><path class="e" d="M672.63,461.06c3.01.52,7.45,7.76,6.3,10.48-1.22,2.89-3.58-.55-5.14.77-.75-.36-1.5-.71-2.24-1.09-5-2.52-5.23-3.84-1.44-7.65.42-.42.58-1.09.86-1.65,0,0-.07.07-.07.07.8.09,1.47-.04,1.73-.94Z"/><path class="f" d="M517,145.07c-1.61-1.07-1.87-3.38-3.82-4.12,2.54-3.63-2.07-3.76-3.5-6.52,5.74,2.27,7.56-2.88,11.16-4.36.13,2.55-.08,4.95-2.59,6.48-1.32.8-1.27,2.2-1.27,3.53-1.24.71-1.09,1.36.09,1.96,0,0-.02-.03-.02-.03-.02,1.02-.03,2.04-.05,3.06Z"/><path class="f" d="M537.38,178.14c3.7,5.52,4.63,12.17,7.97,17.84-.49.24-.98.47-1.47.71-2.95-6.04-5.89-12.08-8.84-18.12.7-.6,1.5-.62,2.35-.43Z"/><path class="f" d="M522.08,129.58c9.85-1.7,19.76-.21,29.64-.53,2.33-.08,4.94-1.01,7.11.82-12.25-.1-24.5-.19-36.75-.29Z"/><path class="e" d="M519.36,145.78c1.05,1.53,1.76,3.2,1.91,5.07,0,0-.29.23-.29.23-1.5-1.33-1.99-3.07-2.01-4.99l.39-.31Z"/><path class="e" d="M517,145.07c.02-1.02.03-2.04.05-3.06,2.14.41,1.89,2.3,2.32,3.77,0,0-.39.31-.39.31-.66-.34-1.32-.68-1.98-1.03h.01Z"/><path class="e" d="M517.07,142.04c-1.19-.6-1.33-1.25-.09-1.96.23.64.67,1.28.09,1.96Z"/><path class="g" d="M666.96,462.99c-.19.68-.64.91-1.3.7-.09-.03-.18-.37-.15-.39.46-.33.92-.79,1.51-.21,0,0-.06-.1-.06-.1Z"/><path class="f" d="M730.33,584.87c.2.37.4.74.61,1.11-.33,0-.66,0-.99-.01,0,0,.03.04.03.04.12-.38.24-.75.36-1.13Z"/><path class="e" d="M695.92,474.01c-.59-.35-.72-.85-.47-1.47.16.49.32.98.47,1.47Z"/><path class="e" d="M717.92,495.03c.14.06.28.11.42.17-.12-.08-.24-.16-.36-.24,0,0-.06.07-.06.07Z"/><path class="f" d="M636.97,310.04l.54.46c-.11-.01-.28.02-.33-.04-.1-.11-.14-.28-.2-.43,0,0-.01.01-.01.01Z"/><path class="f" d="M532.12,177.44c-.67.46-.9.23-.8-.51.27.17.53.34.8.51Z"/><path class="f" d="M741.7,602.09c-.21-.4-.43-.79-.64-1.19.21.4.43.79.64,1.19Z"/><path class="h" d="M401.85,259.94c.06-.77.04-1.57.92-1.95,1.07.35,2.15.69,3.22,1.04.08,1.1-.24,2.33.95,3.1,1.35,2.26,2.56,4.62,4.08,6.77,7.06,9.99,14.19,19.94,21.35,29.86,2.11,2.92,3.54,5.63,1.7,9.47-1.39,2.89-2.07,6.16-3.7,9.01-1.52,2.77-4.22,5.11-3.22,8.8-.89-.03-1.63.22-1.99,1.1-4.37,10.64-8.73,21.28-13.09,31.92-.04.99-1.02,1.97-.06,2.98,0,0,.03-.04.03-.04-1.14-.27-1.4.69-1.67,1.36-4.42,10.9-10.16,21.27-13.29,32.7-1.2,2.86-2.4,5.71-3.6,8.57-.77-.64-2.32-.52-1.65-2.4,2.52-7.03,4.05-14.42,8.14-20.87,1.61-2.54.18-5.87,1.88-8.91-3.55,2.21-6.12,2.39-7.32-2.02-.34-1.25-1.8-1.2-2.94-1.48-5.04-1.22-9.59-3.07-10.45-9.11-.45-3.17-1.85-3.6-4.3-1.6-1.35,1.1-2.19,2.08-4.33-.03-1.54-1.52-3.45,1.77-4.38,3.72-3.4,7.1-6.72,14.24-10.05,21.37-.51,1.09-.43,3-2.51,1.63,3.6-8.53,7.19-17.06,10.78-25.59,11.66-27.68,23.19-55.41,35.12-82.98,1.81-4.19,3.93-7.79,1.4-12.23-.34-1.4-.68-2.8-1.02-4.2Z"/><path class="h" d="M406.1,517.2c1.17.75,2.43.55,3.7.4,9.9-.32,19.8-.65,30.28-.99-1.69-2.3-3.31-1.47-4.67-1.73-2.08-.4-4.59-.34-5.55-2.6-1.3-3.06-3.6-3.47-6.45-3.39-1.24.03-3.06.74-3.67-.58-.84-1.8,1.27-2.33,2.26-3.3,9.45-.08,18.9-.11,28.36-.26,4.4-.07,8.57.58,12.27,3.1,2.25,1.53,4.21,1.3,6.33-.36,3.12-2.43,6.79-3.25,10.73-3.26,15.09-.03,30.18-.15,45.28-.23,1.95,1.17,4.13.93,6.26.98,5.58.13,11.16.25,16.74.38,0,1.11-.02,2.22-.03,3.32-.98-1.32-1.55-2.39-3.78-1.05-5.41,3.25-2.4,8.17-3.06,12.34-43.6-.97-87.2-.96-130.81-1-1.75,0-3.7.67-5.22-.87.34-.3.69-.6,1.03-.9Z"/><path class="e" d="M358.73,489.59c-4.74-9.89-7.74-20.44-11.7-30.63-1.56-4.02-3.79-7.93-3.85-13.49,2.83,3.3,4,6.34,5.1,9.42,3,8.45,5.93,16.92,9.09,25.31,1.13,2.99,2.29,6.24,6.88,7.75-2.93-9.71-5.64-18.68-8.36-27.66,3.5-1.06,2.57-5.58,5.65-7.4,1.35,8.39,4.48,15.58,10.76,21.14.59.52.76,1.45,1.8,1.55,4.18.37,3.45.38,3.41,4.71-.05,6.6-2.96,11.98-5.48,17.66-1.69,3.82-3.44,3.13-4.89.12-1.86-3.86-5.57-5.7-8.42-8.48Z"/><path class="e" d="M402.88,264.14c2.52,4.44.41,8.04-1.4,12.23-11.93,27.56-23.46,55.3-35.12,82.98-3.59,8.53-7.19,17.06-10.78,25.59-3.21,7.41-6.42,14.83-9.62,22.24.04-5.29,2.26-9.93,4.21-14.56,2.63-6.23,5.76-12.24,7.65-18.77,14.23-33.65,28.42-67.32,42.74-100.93,1.25-2.93,1.76-5.66.84-8.66.49-.03.98-.07,1.48-.1Z"/><path class="e" d="M541.1,519.97c.66-4.17-2.36-9.09,3.06-12.34,2.23-1.34,2.8-.27,3.78,1.05,1.31,3.8,2.63,7.61,3.94,11.42-.13.07-.26.14-.39.21.13.2.25.39.38.59.04.34.08.69.12,1.03-.21,4.17,1.76,7.72,3.72,11.06,1.88,3.2,1.18,6.39,1.11,9.59-.05,2.09-1.92,2.41-3.64,2.53-2.15-5.51-4.2-11.06-6.51-16.51-.71-1.67-.68-4.03-3.12-4.61-.39-1.64,0-3.76-2.54-4.05l.09.03Z"/><path class="e" d="M543.38,528.14c4.49,5.47,5.99,12.16,7.72,18.77l-.32.26c-3.47-5.7-4.63-12.35-7.52-18.28-.1-.27-.06-.52.12-.75Z"/><path class="h" d="M543.38,528.14c-.18.23-.22.48-.12.75-3.58-.5-2.87-4.4-4.97-5.76.45-1.81,4.96.66,2.73-3.19,2.54.29,2.15,2.41,2.54,4.05-4.92,1.18.85,2.81-.18,4.15Z"/><path class="e" d="M349.02,418.02c-1.02-1.18-2.03-2.37-1.5-4.24,1.83,1.06,1.18,2.82,1.51,4.24h0Z"/><path class="e" d="M349.03,418.01c1.5.98,2.13,2.29,1.59,4.21-1.43-1.16-1.55-2.67-1.6-4.21,0,0,0,0,0,0Z"/><path class="e" d="M551.1,546.91c1.08.84,1.2,2.06,1.63,3.38-2.6-.17-1.43-2.1-1.94-3.12,0,0,.32-.26.32-.26Z"/><path class="e" d="M351.73,425.2c-.11.03-.29.11-.32.08-.09-.1-.11-.26-.16-.39.18-.04.37-.08.55-.12-.02.15-.04.29-.07.44Z"/><path class="f" d="M427.03,488.01c-.16-6.22,3.41-11.33,4.97-17.04.42-1.52,2.93-3.32.69-4.64-2.05-1.21-4.13.22-5.44,2.24-.26.41-.5.83-.86,1.42-2.46-2.46-.62-4.53,0-6.17,13.86-36.41,27.86-72.76,41.85-109.12.11-.28.44-.47.67-.7,2.22,1.89,2.22-.88,3.11-1.57,1.88-1.47,2.52-3.71,3.32-5.88.51-1.39.95-3.72,3.09-3.04,2.4.75.85,2.71.51,4.15-.41,1.74-1.19,3.44-.1,5.2-1.56,8.29-5.25,15.89-8.38,23.56-4.56,11.15-8.56,22.48-12.82,33.73-7.93,20.93-15.97,41.82-23.96,62.72-3.44,4.5-3.27,10.6-6.69,15.12l.03.02ZM435.37,461.55c.82-1.92,1.64-3.84,2.46-5.76q-3.38,2.36-2.46,5.76Z"/><path class="h" d="M455.9,492.02c2.55,1.65,5.43,1.09,8.17,1.1,14.97.1,29.94.22,44.91.05,6.58-.07,10.93,2.94,14.02,8.38-11.02-.19-22.04-.35-33.05-.59-5.66-.12-11.19.36-16.67,1.99-5.61,1.67-11.19,1.53-16.89-.5-8.09-2.88-16.62-2.48-25.06-2.15-.37-.27-.73-.54-1.1-.81.58-2.92,3.28-4.25,4.86-6.42,6.86-2.01,13.9-.43,20.82-1.07Z"/><path class="e" d="M455.9,492.02c-6.93.64-13.97-.94-20.82,1.07-3.06-6.15.12-11.48,4.28-14.54,9.11-6.7,15.21-16.07,23.24-23.65,1.56-1.47,2.88-3.34,5.46-2.82-2.1,8.52-6.41,16.2-9.21,24.45-1.7,4.99-5.71,9.62-2.94,15.49Z"/><path class="f" d="M434.84,473.84c8.83-23.12,17.63-46.25,26.48-69.36,9.12-23.83,18.27-47.64,27.43-71.45.41-1.05,1.06-2.01,1.66-3.12,2.03,3.12,1.97,3.06-.16,5.58-.61.72-.75,1.83-1.11,2.76-17.65,46.17-35.29,92.35-52.94,138.52-2.43,6.36-4.78,12.74-7.3,19.06-.91,2.28-1.79,4.66-3.95,6.18.4-1.43.72-2.89,1.22-4.28,2.86-7.97,5.76-15.93,8.65-23.9Z"/><path class="e" d="M542.26,500.84c-.71-8.93-5.58-16.48-8.23-24.77-1.2-3.74-3.54-7.09-3.89-11.13,6.21,3.61,10.27,9.63,15.79,14.01.37.29.46.94.83,1.22,8.7,6.41,7.54,14.49,3.92,22.99-2.25-2.79-5.46-2.1-8.41-2.32Z"/><path class="f" d="M542.26,500.84c2.96.22,6.17-.48,8.41,2.32.5,1.28,1.01,2.57,1.51,3.85-2.63,1.13-1.98,2.63-.97,4.76,5.3,11.16,10.38,22.42,15.56,33.63.68,1.47,1.12,3.17,2.9,3.83,1.99,4.83,3.62,9.66,7.48,13.72,2.88,3.03,1.74,8.12,3.24,13.03-2.62-1.6-4.56-2.77-6.85-2.77,1.87-1.34,1.36-2.17-.57-2.7,0-.86,0-1.72,0-2.59-7.14-13.52-11.4-28.31-18.43-41.88-.74-1.43-.89-3.24-2.56-4.1-.04-.34-.08-.69-.12-1.03.05-.27.05-.53,0-.8-1.31-3.81-2.63-7.61-3.94-11.42,0-1.1.02-2.21.03-3.32-.61-4.17-4.03-1.52-5.97-2.46.09-.69.17-1.37.26-2.06Z"/><path class="f" d="M567.39,575.05c-.19-.31-.39-.62-.58-.93,1.22-4.39,3.88-.54,5.78-1.01-.89,1.69-.27,3.21.52,4.71,7.92,15.02,11.81,31.63,18.54,47.12.46,1.06,2.01,3.02-.12,3.78-1.75.62-2.43-1.4-2.98-2.71-4.59-10.84-9.09-21.71-13.69-32.55-1.81-4.27-3.78-8.47-5.68-12.7-.12-1.04-.03-2.15-.98-2.91-.09-.28-.17-.56-.23-.85.1-.74.09-1.45-.57-1.96Z"/><path class="f" d="M422.01,505.01c-.99.97-3.1,1.5-2.26,3.3.62,1.32,2.43.61,3.67.58,2.84-.08,5.14.32,6.45,3.39.96,2.26,3.47,2.2,5.55,2.6,1.36.26,2.98-.57,4.67,1.73-10.48.34-20.38.67-30.28.99.73-2.68,1.47-5.36,2.2-8.04.53-1.94,1.15-3.96,3.22-4.68,5.94-2.07,7.25-7.41,9.13-12.43.6-1.6.51-3.73,2.67-4.43,0,0-.03-.02-.03-.02-.23,4.96-3.81,8.94-4.08,13.89-.3,1.04-.6,2.08-.91,3.12Z"/><path class="e" d="M572.59,573.11c-1.9.48-4.56-3.37-5.78,1.01-17.95-1.77-35.98-.48-53.95-1.3.15-.74.3-1.47.45-2.21,13.19-.08,26.37-.16,39.56-.24.42.41.84.4,1.24-.03,6.29.05,12.58.1,18.86.15,1.93.53,2.44,1.36.57,2.7,0,0-.49.02-.49.02l-.47-.11Z"/><path class="e" d="M569.67,549.23c-1.78-.66-2.22-2.36-2.9-3.83-5.18-11.21-10.26-22.47-15.56-33.63-1.01-2.13-1.65-3.63.97-4.76,7.15,7.69,9.54,17.68,12.78,27.18,1.69,4.96,4.83,9.51,4.72,15.03Z"/><path class="e" d="M565.18,512.82c.97.28,1.66-.16,2.23-.89,4.96,12.84,9.94,25.68,14.89,38.52,2.64,6.85,6.06,13.45,6.5,21.05-7.87-19.56-15.74-39.12-23.61-58.68Z"/><path class="e" d="M422.92,501.89c.27-4.95,3.85-8.93,4.08-13.89,3.42-4.51,3.25-10.61,6.69-15.12.38.32.77.65,1.15.97-2.89,7.96-5.79,15.92-8.65,23.9-.5,1.39-.82,2.85-1.22,4.28-.68-.04-1.37-.09-2.05-.13Z"/><path class="f" d="M622.95,674.98c.35,4.75,3,8.73,4.34,13.14.66,2.16,3.02,4.32.69,6.84-3-7.42-5.99-14.83-9.18-22.72,2.67-.04,3.28,1.52,4.14,2.75Z"/><path class="e" d="M542,502.9c1.94.94,5.36-1.71,5.97,2.46-5.58-.12-11.16-.24-16.74-.37-2.13-.05-4.3.2-6.26-.98-.39-.56-.78-1.12-1.17-1.67,6.05.65,12.11.9,18.19.57Z"/><path class="e" d="M600.54,626.1c-4.62-6.56-5.66-14.53-8.85-21.65,4.58,6.55,6.25,14.31,8.85,21.65Z"/><path class="e" d="M601.39,628.66c1.45,2.31,3.85,2.42,6.25,2.77-.51,2.32-2.58,4.1-3.59,3.74-2.58-.91-2.11-3.99-2.66-6.51Z"/><path class="e" d="M559.25,484.77c1.28,1.92,2.31,3.95,2.71,6.26-.48.37-.96.74-1.45,1.11-1.32-2.11-1.78-4.44-1.81-6.88.18-.16.37-.32.55-.48Z"/><path class="f" d="M529.41,415.82c1.22.39,2.12.9.75,2.18-.92-.5-1.05-1.27-.75-2.18Z"/><path class="h" d="M431.32,500.32c-.4.11-.8.23-1.2.34.03-.38.07-.77.1-1.15.36.27.73.54,1.1.81Z"/><path class="f" d="M528.85,413.91c.1.29.21.57.31.86-.18-.17-.38-.34-.54-.53-.02-.03.14-.22.22-.33Z"/><path class="h" d="M535,587.36c.07-.71.13-1.42.2-2.12,7.56-.03,15.12-.07,22.68-.1.33.58.66,1.16.99,1.74-7.93,1.41-15.93-.6-23.87.48Z"/><path class="f" d="M558.41,589.63c4.62,6.2,6.29,13.64,9.28,20.53-4.97-6.06-6.38-13.61-9.28-20.53Z"/><path class="h" d="M545.49,574.89c1.57-.83,2.55.61,3.81.99,1.27,1.22,2.74,2.3,3.76,3.7,2.02,2.79-.17,2.29-1.82,2.09-.71-3.28-4.72-3.77-5.75-6.79Z"/><path class="f" d="M558.87,586.88c-.33-.58-.66-1.16-.99-1.74,1.06-.11,2.47-.73,2.74.88.19,1.15-1.01.85-1.75.87Z"/><path class="f" d="M568.3,612.67c.11.01.29-.02.33.04.08.11.14.31.09.42-.2.46-.42.43-.54-.06-.03-.12.08-.27.12-.41Z"/><path class="f" d="M569.74,615.85c-.04.13-.08.25-.12.38-.13-.14-.28-.27-.37-.44-.02-.04.17-.19.27-.29.08.12.15.23.23.35Z"/><path class="f" d="M576.08,629.45c-.74-.08-1.47-.16-2.21-.24.78-.31,1.53-.34,2.21.24Z"/><path class="g" d="M378.03,606.99c.05-.12.07-.25.15-.35.04-.06.17-.05.25-.07-.14.13-.29.26-.43.4,0,0,.03.03.03.03Z"/><path class="f" d="M459.01,135.57c-3,10.9-8.02,21.01-12.23,31.44-8.19,20.27-16.7,40.42-25.09,60.62-.38.9-.91,1.74-1.38,2.61-.4-.37-.8-.74-1.19-1.11,11.08-26.61,22.09-53.25,33.3-79.81,1.97-4.66,2.91-9.88,6.59-13.74Z"/><path class="e" d="M419.12,229.12c.4.37.8.74,1.19,1.11-2.85,7.2-5.68,14.4-8.55,21.58-1.07,2.68-1.39,5.4-.74,8.23-.96,1.47-2.89,1.07-4.08,2.09-1.19-.76-.87-1.99-.95-3.1,4.37-9.97,8.75-19.94,13.12-29.92Z"/><path class="f" d="M500.23,129.95c-.12.4-.24.8-.35,1.21-3.14-5.02-4.36-10.88-6.98-16.12-.11-.64-.21-1.29-.32-1.93.88-1.32,1.78-.34,2.67-.03,3.08,5.21,5.07,10.73,4.98,16.88Z"/><path class="f" d="M485.36,118.37c-6.54,1.4-13.17.18-19.74.68,6.49-2.68,13.07-3.08,19.74-.68Z"/><path class="h" d="M495.25,113.07c-.89-.31-1.8-1.29-2.67.03-.62-1.17-1.26-2.32-1.85-3.5-.44-.88-1.08-1.91-.34-2.78,1.04-1.22,2.1.2,3.17.27.57,2,1.13,3.99,1.7,5.99Z"/><path class="f" d="M402.88,264.14c-.49.03-.98.07-1.48.1-.48-1.38-.96-2.76-1.44-4.15.63-.05,1.26-.1,1.9-.15.34,1.4.68,2.8,1.02,4.2Z"/><path class="h" d="M594.95,199.12c-2.74-2.62-2.98-6.39-4.33-9.63-2.97-7.1-5.67-14.32-8.49-21.49.29-.65.58-1.3.87-1.95,3.72,9.3,7.44,18.6,11.15,27.9.27,1.73.53,3.45.8,5.18Z"/><path class="g" d="M328.03,449.97c.19.27.37.54.56.8-.11-.33-.3-.59-.56-.8Z"/><path class="e" d="M354.79,497.14c-4.58-2.53-6.09-7.3-7.69-11.63-4.15-11.22-7.68-22.67-12.64-33.59-1.17-2.59.1-4.78,1.37-6.94,1.5.78,1.69,2.33,2.2,3.71,3.6,9.71,7.64,19.29,10.68,29.17,1.98,6.44,5.4,12.43,6.08,19.27Z"/><path class="f" d="M354.79,497.14c-.68-6.84-4.1-12.83-6.08-19.27-3.03-9.89-7.08-19.46-10.68-29.17-.51-1.38-.7-2.93-2.2-3.71-.07-.58-.14-1.17-.2-1.75.32-.96.22-1.76-.82-2.21.11-1.57-.56-3.22.45-5.13,2.82,2.33,3.32,5.59,4.35,8.39,6.34,17.35,12.5,34.76,18.67,52.17.5,1.4,2.17,3.45-.06,4.26-2.81,1.02-2.99-1.67-3.42-3.58Z"/><path class="h" d="M342.09,482.05c-1.39-1.11-1.43-2.55-1.03-4.11,1.45,1.09,1.94,2.43,1.03,4.11Z"/><path class="e" d="M334.81,441.02c1.04.45,1.14,1.25.82,2.21-1.11-.43-2.21-.86-.82-2.21Z"/><path class="e" d="M342.4,442.71c.48.59,1.06,1.18.23,1.93-.3-.46-.59-.91-.89-1.37.21-.19.43-.38.66-.55Z"/><path class="h" d="M341.1,478.01c-1.36-.18-1.15-1.16-1.05-2.08,1.71,0,1.2,1.14,1.05,2.08Z"/><path class="h" d="M342.17,483.84c-.04-.64-.09-1.27-.13-1.91.98-.54,1.02.39,1.35.86-.4.35-.81.7-1.21,1.05Z"/><path class="e" d="M341.74,443.27c-.46-.46-1.02-1.19-.4-1.57.82-.51.78.58,1.06,1.02-.22.18-.44.36-.66.55Z"/><path class="h" d="M601.99,187.99c1.2.67,2.08,1.56,2.05,3.06-1.97-.16-2.12-1.53-2.05-3.06Z"/><path class="h" d="M599.99,185.59c.69.82,1.37,1.64,2.06,2.46-1.64-.03-1.96-1.15-2.06-2.46Z"/><path class="h" d="M594.9,201.18c-.34-.71-.58-1.43,0-2.14,1.17.72.85,1.43,0,2.14Z"/><path class="h" d="M603.98,191.01c.71,0,.98.43,1.06,1.06-.35-.35-.71-.71-1.06-1.06Z"/><path class="h" d="M732.91,564.02c-.82-4.98-4.66-8.9-4.97-14.06,3.72,2.28,2.72,7.25,5.67,9.98,1.26,4.76,3.9,9.09,4.38,14.09-2.9-2.72-3.2-6.77-5.08-10.01Z"/><path class="h" d="M740.11,577.92c-.32.29-.64.58-.97.87-.47-1.6-1.73-3-1.21-4.85,1.45.93,1.57,2.59,2.18,3.98Z"/><path class="f" d="M336.09,604.88c0,.36-.01.72-.02,1.09-1.27-.38-.65-.73.02-1.09Z"/><path class="e" d="M383.93,574.11c.41.14.81.29,1.22.43-.41-.15-.81-.29-1.22-.43Z"/><path class="e" d="M378.35,574.84s.19-.11.18-.11c.14.39.28.77.42,1.16-.6-.12-.87-.43-.6-1.05Z"/><path class="f" d="M406.95,262.13c1.19-1.03,3.11-.62,4.08-2.09.9.33,2.44.08,2.56,1.16.91,8.46,8.31,13.06,11.97,19.96,3.72,7.03,7.44,14.28,12.22,20.8,2.98,4.07-2.06,6.52-2.48,10.02-.23,1.92-1.64,3.92-3.6,5.08-.44.06-.88.12-1.32.19,1.62-2.85,2.3-6.12,3.7-9.02,1.85-3.84.41-6.55-1.7-9.47-7.16-9.92-14.28-19.87-21.35-29.86-1.52-2.14-2.73-4.51-4.08-6.77Z"/><path class="e" d="M573.76,309.22c3.15-2.69,4.86.44,6.73,1.88,6.5,4.99,10.45,12.18,15.38,18.52,2.62,3.37,5.12,6.84,7.76,10.19,1.21,1.53,1.67,3.18,1.5,5.07-6.04-7.14-14.73-12.09-17.75-21.72-.33-1.06-.79-2.42-2.02-2.68-3.32-.7-4.92-3.25-6.36-5.83-1.59-2.86-2.01.46-3.03.4-.74-1.94-1.48-3.89-2.22-5.83Z"/><path class="e" d="M398.02,398.02c-.32-.65-.63-1.31-.95-1.96,3.13-11.42,8.87-21.79,13.29-32.7.27-.67.53-1.63,1.67-1.36.71,1.16.16,2.27-.27,3.3-4.58,10.91-8.44,22.12-13.74,32.72Z"/><path class="e" d="M589.99,341.97c1.39,6.18,4.74,11.63,6.44,17.68.52,1.85,2.62,3.77.37,5.86-4.84-11.57-9.74-23.13-14.46-34.75-.56-1.37-1.42-3.04-.44-4.7,3.05,2.54,3.27,6.52,4.93,9.77.72,1.41.83,3.13,2.23,4.19,0,0-.08-.04-.08-.04.35.7.7,1.39,1.06,2.09l-.05-.08Z"/><path class="f" d="M412.06,359.07c4.36-10.64,8.73-21.28,13.09-31.92.36-.89,1.11-1.14,1.99-1.1.33.23.66.46.99.69-4.54,7.36-6.53,15.81-10.05,23.6-1.49,3.31-3.05,6.58-4.58,9.87-.48-.38-.97-.76-1.45-1.13Z"/><path class="f" d="M484.87,139.18c-.53-.02-1.06-.04-1.59-.07-.52-.61-1.37-1.17-1.49-1.85-1.01-5.61-3.13-9.86-11.14-8.03,5.76-4.58,8.71-3.94,10.8,1.18,1.19,2.9,2.28,5.85,3.42,8.77Z"/><path class="e" d="M428.14,326.73c-.33-.23-.66-.46-.99-.69-1-3.69,1.71-6.03,3.23-8.8.44-.06.88-.12,1.32-.19.4,1.76-.62,3.24-.93,4.87-1.57.81-2.06,1.8-1.13,3.55.71,1.32,2.03,2.79.46,4.44-1.49-.55-.81-2.43-1.96-3.18Z"/><path class="f" d="M430.1,329.91c1.57-1.64.24-3.12-.46-4.44-.94-1.75-.44-2.75,1.13-3.55.73,2.66,1.32,5.36,2.25,7.95.36,1,2.7,1.62.82,2.93-1.28.89-2.47-.18-3.08-1.56-.2-.45-.44-.88-.66-1.33Z"/><path class="e" d="M579.89,324.04c1.57-.2,2.22.52,2.04,2.06-1.82.44-1.53-1.2-2.04-2.06Z"/><path class="f" d="M487.45,143.81c.51.31,1.02.62,1.53.93-.36.24-.82.75-1.07.67-.76-.26-.66-.96-.46-1.6Z"/><path class="e" d="M597.23,367.17c1.54-.23,1.97.53,1.7,1.91-1.29,0-1.21-1.21-1.7-1.91Z"/><path class="e" d="M412.06,359.07c.48.38.97.76,1.45,1.13-.41.69-.16,1.92-1.51,1.84-.96-1.01.02-1.98.06-2.98Z"/><path class="e" d="M598.91,369.05c1.23.47.48.82-.07,1.19.02-.4.05-.79.07-1.19Z"/><path class="g" d="M674.98,645.99c.13-.14.27-.27.4-.41-.03.08-.03.2-.09.25-.1.07-.23.09-.35.13,0,0,.03.03.03.03Z"/><path class="e" d="M615.05,393.98c.55.27,1.09.54,1.64.81,1.64,3.38,3.27,6.75,4.88,10.07-1.05,2.07-3.84-.09-4.59,2.19-4.17-2.88-5.89-7.29-7.35-11.86,1.54-1.6,4.38,2.61,5.42-1.21Z"/><path class="e" d="M606.33,347.82c4.52,3.29,4.34,9.24,7.49,13.38.95,1.24,2.39,2.76,2.22,4.76-.62-.14-1.57-.07-1.81-.45-3.48-5.51-9.4-9.95-7.89-17.68Z"/><path class="e" d="M604.68,360.21c-.58-.08-1.17-.16-1.75-.24,0-4.28,0-8.56,0-12.84.23,0,.46,0,.69-.01.35,4.37.71,8.73,1.06,13.1Z"/><path class="e" d="M618.91,369.09c1.22-.17,1.98.35,2.28,1.54-1.45.52-2.13-.11-2.28-1.54Z"/><path class="h" d="M729.94,585.97c.33.01.66.01.99.01.35,1.66.69,3.33,1.04,4.99l-.25.17c-.5-.15-1.01-.3-1.51-.46-.09-1.57-.18-3.15-.27-4.72Z"/><path class="f" d="M758.73,657.16c-3.58-4.48-4.4-10.14-6.4-15.29,3.29,4.53,5.24,9.67,6.76,15l-.35.29Z"/><path class="f" d="M737.34,604.31c2.84,4.7,5.41,9.51,6.13,15.1-2.59-4.8-5.74-9.37-6.13-15.1Z"/><path class="f" d="M759.08,656.87c1.48,1.9,2.5,3.98,2.92,7.1-2.61-2.15-2.97-4.47-3.27-6.81,0,0,.35-.29.35-.29Z"/><path class="h" d="M733.95,595.99c1.74,1.23,1.73,3.28,2.36,5.03-.15.27-.29.55-.44.82-1.24-1.76-2.54-3.51-1.89-5.88l-.03.03Z"/><path class="h" d="M733.98,595.96c-2.3-.89-2.22-2.89-2.25-4.83,0,0,.24-.16.24-.16,1.5,1.34,2.07,3.05,1.98,5.02,0,0,.03-.03.03-.03Z"/><path class="f" d="M745.72,626.18c-.88-.78-.94-1.87-1.08-2.92.22-.19.43-.38.66-.57.84.85.85,1.95.94,3.03-.17.15-.34.31-.52.46Z"/><path class="f" d="M744.64,623.26c-.5-.48-1-1.29-.39-1.65.86-.5.74.64,1.04,1.08-.22.18-.44.37-.66.56Z"/><path class="f" d="M746.24,625.72c.5.43,1,1.2.4,1.53-.84.46-.67-.63-.92-1.07.17-.15.35-.3.52-.46Z"/><path class="f" d="M736.3,601.02c.75.49.93,1.06.23,1.74-.22-.31-.44-.62-.67-.93.15-.26.29-.54.44-.81Z"/><path class="f" d="M751.74,638.92c-.05.14-.09.28-.14.42-.15-.16-.31-.3-.43-.48-.02-.03.2-.2.3-.31.09.13.18.25.26.38Z"/><path class="g" d="M535.53,422.46c-.45-.43-.9-.94-.27-1.45.21-.17.79.12,1.2.19-.31.42-.63.84-.94,1.26Z"/><path class="f" d="M634.73,436.44c.26.12.65.18.73.37.07.18-.18.5-.29.76-.26-.12-.65-.18-.73-.37-.07-.18.18-.5.29-.76Z"/><path class="f" d="M494.41,292.7c1.04,1.01,1.68,2.08,1.41,3.49-.15.16-.33.39-.35.38-1.41-.97-1.84-2.21-1.06-3.87Z"/><path class="f" d="M497.06,299.98c.25.34.5.68.75,1.02-.17.12-.35.24-.52.36-.11-.43-.22-.86-.32-1.3l.1-.09Z"/><path class="f" d="M496.96,300.07c-.25-.36-.51-.72-.76-1.08.18-.12.37-.23.55-.35.1.45.21.89.31,1.34,0,0-.1.08-.1.08Z"/><path class="f" d="M493.72,290.37c-.11.03-.28.1-.3.07-.08-.1-.1-.25-.14-.38.17-.04.34-.07.51-.11-.02.14-.04.28-.06.41Z"/><path class="h" d="M551.99,460.69c-2.54.38-3.35-.43-3.85-2.11,1.94-.72,2.43.84,3.85,2.11Z"/><path class="e" d="M558.7,485.25c-.42-.49-.89-.98-.21-1.62.25.38.51.76.76,1.13-.18.16-.36.32-.55.48Z"/><path class="h" d="M544.43,456.08c.34-.08.56-.84.99-.19.05.08-.33.43-.51.66-.28-.04-.44-.2-.48-.47Z"/><path class="e" d="M578.32,277.76c3.79,4.12,4.13,9.88,7.09,14.46-1.27-8.77-6.04-16.49-7.41-25.2l-.03.03c5.94,3.92,8.04,10.38,10.63,16.43,5.55,12.94,8.43,26.83,14.09,39.84-7.29-1.39-9.65-4.19-10.97-10.78-.62-3.08-3.04-5.75-4.18-8.78-.42-1.12-4.52-3.46.64-4.4.92-.17-.48-2.89-1.04-4.58-1.82.21-.42,2.5-2.25,2.79-2.85-6.19-5.07-12.73-7.15-19.33.19-.17.38-.33.58-.48Z"/><path class="f" d="M571.51,297.04c-4.2-6.52-5.63-14.17-8.51-21.24-1.48-3.63-3.99-6.87-4.65-12.36,5.63,8.24,13.68,12.36,18.46,19.73,3.31,7.86,6.71,15.68,9.11,23.89-3.94-1.81-8.65-2.91-9.56-8.07-.66-3.7-2.59-2.92-4.85-1.95Z"/><path class="f" d="M536.94,189.04c4.23,4.29,5.77,9.99,7.87,15.35,4.73,12.06,9.31,24.19,13.85,36.33.73,1.96,1.41,3.73,3.57,4.42.53,1.74,1.09,3.49.66,5.68-4.3-2.14-4.99-6.54-6.45-10.11-6.3-15.38-12.25-30.91-18.32-46.38-.67-1.7-1.47-3.37-1.18-5.29Z"/><path class="f" d="M549.04,233.06c-3.16-7.63-6.16-15.34-9.52-22.88-3.18-7.14-5.85-14.47-8.41-21.84-.59-1.7-.74-3.55-1.1-5.33,1.61.35,1.88,1.83,2.24,3,4.35,14.27,11.38,27.52,15.82,41.75.54,1.73,1.37,3.4.97,5.29Z"/><path class="h" d="M571.51,297.04c2.26-.97,4.2-1.75,4.85,1.95.92,5.16,5.62,6.26,9.56,8.07.69.99,1.37,1.98,2.06,2.97-.08.91-.2,1.79-1.09,2.32-5.11-4.28-11.88-6.71-14.94-13.3-.15-.67-.3-1.34-.45-2.01Z"/><path class="f" d="M549.98,240.02c.92-2.51-1.14-4.61-.97-7.02,3.16,3.39,4.08,7.73,5.06,12.04-.68,0-1.36.02-2.05.03,0,0-.04-.05-.04-.05.41-2.07.52-4.03-1.97-4.95l-.03-.05Z"/><path class="e" d="M552.01,245.07c.68,0,1.36-.02,2.05-.03,0,0-.06-.05-.06-.05.07.86.22,1.67,1.13,2.06,3.71,1.77-.51,3.27-.17,4.93-1.39-1-.95-3.39-2.96-3.93l-.02-.03c.01-.99.02-1.98.03-2.97Z"/><path class="f" d="M530.04,183.07c-2.37-2.89-2.62-6.45-3.15-9.92l.19-.17c.51.74,1.03,1.48,1.54,2.22-.08,2.72,2.02,5.05,1.42,7.87Z"/><path class="f" d="M552,248.06c2.01.54,1.57,2.92,2.96,3.93,0,0,.06.1.06.1.27.67.54,1.35.81,2.02.19.61.37,1.21.56,1.82-3.85-1.29-3.78-4.76-4.38-7.87Z"/><path class="e" d="M586.9,312.36c.88-.53,1.01-1.41,1.09-2.32,1.46.67,2.67,1.81,1.53,3.28-1.06,1.38-2.23.73-2.62-.96Z"/><path class="e" d="M555.82,254.11c-.27-.67-.54-1.35-.81-2.02,1.12-.37,2.16-1.64,3.46-.31-.11,1.66-2.3.97-2.66,2.33Z"/><path class="f" d="M535.76,187.04c.94.37,1.13,1.2,1.23,2.07-.99-.35-.94-1.3-1.23-2.07Z"/><path class="e" d="M576.73,276.26c-.45-.43-1.03-1.13-.43-1.49.77-.45.75.55.94,1.04-.17.15-.34.3-.51.45Z"/><path class="e" d="M577.25,275.81c.36.65.72,1.3,1.08,1.95-.19.15-.38.31-.57.48-.34-.66-.68-1.32-1.02-1.98.17-.15.34-.3.51-.45Z"/><path class="f" d="M555.13,247.06c-.92-.39-1.07-1.2-1.13-2.06.96.37.99,1.25,1.13,2.06Z"/><path class="e" d="M578,267.03c-.15-.13-.29-.27-.44-.4.09.02.21.02.26.08.08.1.1.23.15.35,0,0,.03-.03.03-.03Z"/><path class="h" d="M672.63,461.06c-.26.9-.94,1.03-1.73.94.35-.34.7-.68,1.04-1.02.21.19.44.22.69.08Z"/><path class="h" d="M512.15,141.88c6.16,17.45,12.32,34.89,18.47,52.34-.47-.12-.93-.25-1.39-.37-6.63-16.78-13.27-33.55-19.84-50.34-.36-.92-1.62-2.22-.15-3.04,1.21-.67,1.97.84,2.91,1.41Z"/><path class="f" d="M529.22,193.85c.46.12.93.24,1.39.37,4.68,10,8.51,20.33,12.47,30.62,2,5.19,3.42,10.66,6.89,15.19,0,0,.03.04.03.04-.12,1.96.24,3.73,1.97,4.95,0,0,.04.05.04.05-.01.99-.02,1.98-.03,2.97-4.36-4.17-5.45-10.08-7.74-15.27-4.83-10.92-8.99-22.13-13.38-33.24-.72-1.83-1.76-3.59-1.63-5.67Z"/><path class="f" d="M547.01,124.81c4.75.99,9.71-.62,14.4,1.15-1.62,1.69-3.72,1.11-5.64,1.11-12.38.04-24.77.02-37.24.02-.28-1.33,1.62-1.43,1.72-2.61,2.23-.09,4.46-.19,6.69-.28,6.65,1.58,13.37.53,20.06.6Z"/><path class="f" d="M549.1,207.95c1.03,1.23,1.84,2.55,1.62,4.52-2.1-.96-1.68-2.77-1.85-4.32l.23-.2Z"/><path class="f" d="M555,225.04c-1.27-1.11-1.89-2.47-1.69-4.44,2.03,1.1,1.58,2.88,1.67,4.45h.02Z"/><path class="f" d="M545.39,198.48c1.51.81,1.49,1.87,1.43,3.17-1.56-.63-1.85-1.56-1.43-3.17Z"/><path class="f" d="M547.47,204.58c-.09-.23-.21-.47-.26-.72-.02-.08.18-.2.28-.3.1.25.23.48.29.74.02.07-.19.19-.3.29Z"/><path class="f" d="M556.43,229.44c-.09-.32-.15-.47-.15-.62,0-.04.21-.08.33-.12-.05.2-.09.39-.17.73Z"/><path class="f" d="M554.98,225.06c.25.35.49.7.74,1.05-1.11.23-.46-.72-.72-1.07,0,0-.02.01-.02.01Z"/><path class="f" d="M552.81,217.82c-.11.25-.23.5-.34.75-.1-.12-.29-.26-.27-.35.06-.26.21-.51.33-.76.1.12.19.24.29.35Z"/><path class="f" d="M551.47,215.63c-.09-.24-.22-.49-.27-.76-.02-.08.18-.21.28-.31.11.25.24.5.3.77.02.07-.2.2-.31.3Z"/><path class="f" d="M548.86,208.15c-.22-.35-.46-.69-.65-1.06-.02-.03.3-.24.47-.36.14.41.27.82.41,1.22,0,0-.23.2-.23.2Z"/><path class="f" d="M526.89,173.15c-2.81-3.91-4.13-8.33-4.73-13.01,2.31,4.04,4.16,8.24,4.92,12.84,0,0-.19.17-.19.17Z"/><path class="f" d="M516.99,145.06c.66.34,1.32.68,1.98,1.03.03,1.92.51,3.66,2.01,4.99,0,1.61,0,3.22,0,6.18-1.88-4.81-3.65-8.25-4-12.19Z"/><path class="h" d="M572.97,570.5c-6.29-.05-12.58-.1-18.86-.15-.41,0-.83.02-1.24.03-13.19.08-26.37.16-39.56.24-3.54-.8-7.07-.88-10.6.08-1.19-.22-2.5-.73-2.78,1.19-8.62-.95-17.24-1.02-25.86,0-1.28-2.46-2.78-1.72-4.32-.28-3.24-.96-6.5-.22-9.76-.17-4.31-1.06-8.66-.71-13.01-.3-2.64-.08-5.28-.17-7.92-.25-.37-.63-.74-.63-1.11,0-23.42-.09-46.85.27-70.26-.93-.72-.04-1.59-.55-1.5-1.71,1.29-.96,2.8-.48,4.2-.49,65.2-.06,130.4-.08,195.6-.09,2.33,0,4.65.17,6.98.27,0,.86,0,1.72,0,2.59Z"/><path class="f" d="M502.71,570.69c3.52-.96,7.06-.88,10.6-.08-.15.74-.3,1.48-.45,2.21-3.22-.03-6.44-.05-9.66-.08-.16-.68-.33-1.37-.49-2.05Z"/><path class="f" d="M351.09,618.46c-2.16-3.46-4.2-6.9-4.09-11.14,1.33,3.76,4.68,6.7,4.09,11.14Z"/><path class="e" d="M362.6,566.84c.24,3.56-1.23,6.56-3.31,10.36-.41-4.59,1.92-7.32,3.31-10.36Z"/><path class="e" d="M446.99,571.12c4.35-.41,8.69-.76,13.01.3-4.36,1.03-8.71,1.36-13.01-.3Z"/><path class="e" d="M469.75,571.6c1.54-1.44,3.03-2.18,4.32.28-1.55,1.63-3.01,1.78-4.32-.28Z"/><path class="e" d="M502.71,570.69c.16.69.32,1.37.49,2.05-1.24.27-2.49.6-3.27-.87.28-1.92,1.59-1.41,2.78-1.19Z"/><path class="e" d="M358.75,579.22c-.12.03-.3.12-.34.08-.09-.09-.12-.26-.17-.39.2-.04.39-.09.59-.13-.03.15-.05.3-.08.45Z"/><path class="f" d="M437.96,570.87c.37-.63.74-.63,1.11,0-.37,0-.74,0-1.11,0Z"/><path class="e" d="M435.37,461.55q-.92-3.4,2.46-5.76c-.82,1.92-1.64,3.84-2.46,5.76Z"/><path class="f" d="M552.87,570.37c.41,0,.83-.02,1.24-.03-.4.42-.82.44-1.24.03Z"/><path class="e" d="M547.01,124.81c-6.69-.07-13.42.99-20.06-.6,6.7-.06,13.42-1.12,20.06.6Z"/><path class="f" d="M588.98,339.97c1.01.36,1.06,1.21,1.06,2.08-.35-.69-.7-1.39-1.06-2.08Z"/><path class="e" d="M551.98,245.02c-1.73-1.22-2.09-2.99-1.97-4.95,2.49.92,2.38,2.87,1.97,4.95Z"/></svg>