<?xml version="1.0" encoding="utf-8"?>
<!-- Generator: Adobe Illustrator 28.3.0, SVG Export Plug-In . SVG Version: 6.00 Build 0)  -->
<svg version="1.1"
	 id="svg1" xmlns:inkscape="http://www.inkscape.org/namespaces/inkscape" xmlns:sodipodi="http://sodipodi.sourceforge.net/DTD/sodipodi-0.dtd" xmlns:svg="http://www.w3.org/2000/svg" inkscape:version="1.3.2 (091e20ef0f, 2023-11-25, custom)"
	 xmlns="http://www.w3.org/2000/svg" xmlns:xlink="http://www.w3.org/1999/xlink" x="0px" y="0px" viewBox="0 0 133 198"
	 style="enable-background:new 0 0 133 198;" xml:space="preserve">
<style type="text/css">
	.st0{fill-rule:evenodd;clip-rule:evenodd;fill:#377DBC;}
</style>
<sodipodi:namedview  bordercolor="#000000" borderopacity="0.25" id="namedview1" inkscape:current-layer="svg1" inkscape:cx="66.566871" inkscape:cy="99" inkscape:deskcolor="#d1d1d1" inkscape:pagecheckerboard="0" inkscape:pageopacity="0.0" inkscape:showpageshadow="2" inkscape:window-height="1028" inkscape:window-maximized="1" inkscape:window-width="1920" inkscape:window-x="0" inkscape:window-y="0" inkscape:zoom="4.1161616" pagecolor="#ffffff">
	</sodipodi:namedview>
<path id="path1" class="st0" d="M43.4,0L0,30.5v60l89,59V179L0,120v60.5l33-23L94.5,198l38.5-26v-52l-23-15.7L133,89V28L100,6
	L43.4,45V0z M33,67.5V22L11,38v44l55.5,37.5l11,7.5l11,7l10.5,7.5l21.5-15.5L99,112l-10.5-7.5L55,82l65.5-46L99,22L33,67.5z M22,150
	l-11-7.5v15L22,150z M120.5,142.5V165L100,178.8V156L120.5,142.5z M120.5,82V51.5L77.5,82L99,96L120.5,82z"/>
</svg>
